<?xml version="1.0" encoding="UTF-8" standalone="no"?>
<!-- Created with Inkscape (http://www.inkscape.org/) -->

<svg
   xmlns:dc="http://purl.org/dc/elements/1.1/"
   xmlns:cc="http://creativecommons.org/ns#"
   xmlns:rdf="http://www.w3.org/1999/02/22-rdf-syntax-ns#"
   xmlns:svg="http://www.w3.org/2000/svg"
   xmlns="http://www.w3.org/2000/svg"
   xmlns:xlink="http://www.w3.org/1999/xlink"
   xmlns:sodipodi="http://sodipodi.sourceforge.net/DTD/sodipodi-0.dtd"
   xmlns:inkscape="http://www.inkscape.org/namespaces/inkscape"
   width="949.99994"
   height="1180.8361"
   viewBox="0 0 949.99992 1180.8361"
   version="1.1"
   id="svg989"
   inkscape:version="0.92.5 (2060ec1f9f, 2020-04-08)"
   sodipodi:docname="icono_iglesiasana_simple.svg"
   inkscape:export-filename="/home/eduardo/iglesiasana/inicio/logo_iglesiasana.png"
   inkscape:export-xdpi="96"
   inkscape:export-ydpi="96">
  <defs
     id="defs983">
    <linearGradient
       inkscape:collect="always"
       id="linearGradient1019-6-7">
      <stop
         style="stop-color:#00ffff;stop-opacity:1"
         offset="0"
         id="stop1570" />
      <stop
         style="stop-color:#00aaaa;stop-opacity:1"
         offset="1"
         id="stop1572" />
    </linearGradient>
    <filter
       style="color-interpolation-filters:sRGB"
       inkscape:label="Feather"
       id="filter10753"
       x="-0.0096005853"
       y="-0.010162292"
       width="1.0192012"
       height="1.0203246">
      <feGaussianBlur
         stdDeviation="5"
         result="blur"
         id="feGaussianBlur10745" />
      <feComposite
         in="SourceGraphic"
         in2="blur"
         operator="atop"
         result="composite1"
         id="feComposite10747" />
      <feComposite
         in2="composite1"
         operator="in"
         result="composite2"
         id="feComposite10749" />
      <feComposite
         in2="composite2"
         operator="in"
         result="composite3"
         id="feComposite10751" />
    </filter>
    <filter
       style="color-interpolation-filters:sRGB"
       inkscape:label="Blur"
       id="filter14693"
       x="-0.0096005853"
       y="-0.010162292"
       width="1.0192012"
       height="1.0203246">
      <feGaussianBlur
         stdDeviation="5 5"
         result="blur"
         id="feGaussianBlur14691" />
    </filter>
    <linearGradient
       inkscape:collect="always"
       xlink:href="#linearGradient1019-6-7"
       id="linearGradient3020"
       x1="1388.9619"
       y1="-202.87631"
       x2="116.83427"
       y2="984.16345"
       gradientUnits="userSpaceOnUse"
       spreadMethod="repeat"
       gradientTransform="translate(274.99805,159.58203)" />
    <filter
       inkscape:collect="always"
       style="color-interpolation-filters:sRGB"
       id="filter876"
       x="-0.0023336716"
       width="1.0046673"
       y="-0.002470209"
       height="1.0049404">
      <feGaussianBlur
         inkscape:collect="always"
         stdDeviation="1.2153799"
         id="feGaussianBlur878" />
    </filter>
  </defs>
  <sodipodi:namedview
     id="base"
     pagecolor="#000000"
     bordercolor="#0000c3"
     borderopacity="1"
     inkscape:pageopacity="0"
     inkscape:pageshadow="2"
     inkscape:zoom="0.64"
     inkscape:cx="387.33542"
     inkscape:cy="161.94592"
     inkscape:document-units="px"
     inkscape:current-layer="layer2"
     showgrid="false"
     inkscape:showpageshadow="false"
     units="px"
     inkscape:snap-bbox="true"
     inkscape:bbox-nodes="true"
     showguides="false"
     inkscape:guide-bbox="true"
     inkscape:snap-intersection-paths="true"
     inkscape:snap-bbox-midpoints="true"
     inkscape:snap-bbox-edge-midpoints="true"
     inkscape:window-width="1366"
     inkscape:window-height="704"
     inkscape:window-x="0"
     inkscape:window-y="27"
     inkscape:window-maximized="1"
     inkscape:snap-global="true"
     showborder="true"
     inkscape:pagecheckerboard="true"
     width="1500px"
     fit-margin-top="0"
     fit-margin-left="0"
     fit-margin-right="0"
     fit-margin-bottom="0">
    <sodipodi:guide
       position="-280.71233,-162.43916"
       orientation="0,1"
       id="guide1544"
       inkscape:locked="false" />
    <sodipodi:guide
       position="-274.99805,2340.4181"
       orientation="0,1"
       id="guide1552"
       inkscape:locked="false" />
    <sodipodi:guide
       position="-274.99805,2340.4181"
       orientation="1,0"
       id="guide1554"
       inkscape:locked="false" />
    <sodipodi:guide
       position="2225.0019,2340.4181"
       orientation="1,0"
       id="guide1556"
       inkscape:locked="false" />
    <sodipodi:guide
       position="975.00195,515.91889"
       orientation="0,1"
       id="guide1575"
       inkscape:locked="false" />
    <sodipodi:guide
       position="475.00196,1960.2777"
       orientation="1,0"
       id="guide1701"
       inkscape:locked="false" />
    <sodipodi:guide
       position="1475.0019,1960.2777"
       orientation="1,0"
       id="guide1703"
       inkscape:locked="false" />
    <sodipodi:guide
       position="1450.0019,1965.992"
       orientation="1,0"
       id="guide1707"
       inkscape:locked="false" />
    <sodipodi:guide
       position="1375.0019,590.91889"
       orientation="1,0"
       id="guide1715"
       inkscape:locked="false" />
    <sodipodi:guide
       position="306.50195,675.91889"
       orientation="0,1"
       id="guide1891"
       inkscape:locked="false" />
    <sodipodi:guide
       position="-823.53716,558.41849"
       orientation="1,0"
       id="guide2008"
       inkscape:locked="false" />
    <sodipodi:guide
       position="-274.99805,590.41809"
       orientation="0,-1"
       id="guide13959"
       inkscape:locked="false" />
  </sodipodi:namedview>
  <metadata
     id="metadata986">
    <rdf:RDF>
      <cc:Work
         rdf:about="">
        <dc:format>image/svg+xml</dc:format>
        <dc:type
           rdf:resource="http://purl.org/dc/dcmitype/StillImage" />
        <dc:title></dc:title>
      </cc:Work>
    </rdf:RDF>
  </metadata>
  <g
     inkscape:label="Layer 1"
     inkscape:groupmode="layer"
     id="layer1"
     transform="translate(-274.99805,204.87631)"
     style="display:none">
    <path
       style="opacity:1;fill:url(#linearGradient3020);fill-opacity:1;stroke:none;stroke-width:15.26099968;stroke-linecap:round;stroke-linejoin:miter;stroke-miterlimit:4;stroke-dasharray:none;stroke-opacity:1;filter:url(#filter876)"
       d="m 749.99902,-204.87631 c 0,0 -25.6645,2e-5 -44.3398,22.14258 v 0.002 l -29.7364,35.19136 -325.92185,386 -25.73633,30.4805 c -25.73919,30.4812 -49.26562,58.3443 -49.26562,107.0195 v 443.9414 81.0586 c 0,41.42136 33.57864,75 75,75 h 358.5 v -0.025 H 1054.749 v 0.025 h 95.25 c 41.4214,0 75,-33.57864 75,-75 v -81.0586 -443.9414 c 0,-48.6752 -23.5265,-76.5382 -49.2637,-107.0195 l -25.7363,-30.4805 -325.92188,-386 -29.7129,-35.19141 c -18.698,-22.1447 -44.3652,-22.14453 -44.3652,-22.14453 z m -175,75 c 0,0 -20.5569,4.1e-4 -35.5156,17.73633 v 0.002 l -23.8184,28.1875 -261.05858,309.18171 -20.61523,24.414 c -20.6152,24.4151 -39.45899,46.7326 -39.45899,85.7207 v 355.5918 64.9277 c 0.008,31.39244 24.18557,57.48552 55.48633,59.8829 -0.1321,-122.5999 0.0775,-245.208 -0.0195,-367.8087 0.4732,-29.1584 -0.95321,-58.381 0.71289,-87.502 2.6608,-34.52 19.6939,-66.1 41.625,-92.2246 106.3044,-126.40612 213.07561,-252.50115 319.58981,-378.72067 l -1.3925,-1.65039 c -14.9769,-17.73764 -35.5352,-17.73828 -35.5352,-17.73828 z m 350.002,0 c 0,0 -20.5603,6.4e-4 -35.5372,17.73828 l -1.3808,1.63672 c 71.7893,84.92048 143.40868,169.99082 215.21288,254.89844 36.412,43.5744 73.7216,86.4127 109.5801,130.4414 21.3058,26.5046 35.9837,59.1199 36.9531,93.459 0.3639,149.1393 0.1223,298.2876 0.164,447.4316 31.2811,-2.40198 55.4465,-28.47048 55.4747,-59.8437 v -64.9278 -355.5918 c 0,-38.988 -18.8438,-61.3055 -39.459,-85.7207 l -20.6153,-24.414 -261.05858,-309.18166 -23.8203,-28.1875 v -0.002 c -14.9587,-17.73592 -35.5136,-17.73633 -35.5136,-17.73633 z m -510.00395,70 c 0,0 -15.66616,7.8e-4 -27.06641,13.51758 v 0.002 l -18.15234,21.48243 -198.95703,235.63093 -15.71094,18.6074 c -15.71107,18.6071 -30.07227,35.6146 -30.07227,65.3281 v 271.002 49.4824 c 0.0147,24.77735 19.73815,45.04694 44.50586,45.7383 -0.0831,-110.0397 -0.004,-220.0848 0.0625,-330.1231 0.38107,-30.7028 14.00624,-59.7461 33.45703,-82.9902 80.94686,-96.43188 162.37684,-192.53219 243.58985,-288.74029 l -4.57422,-5.41797 c -11.41412,-13.51812 -27.08203,-13.51953 -27.08203,-13.51953 z m 670.00393,0 c 0,0 -15.668,10e-4 -27.0821,13.51953 l -4.5664,5.40821 c 80.9969,95.86247 162.0347,191.73681 242.8086,287.7852 19.3192,22.9377 33.2797,51.4161 34.1484,81.8125 0.3198,110.7442 0.1393,221.4968 0.1485,332.246 24.7593,-0.69218 44.4786,-20.9497 44.5039,-45.7187 v -49.4824 -271.002 c 0,-29.7135 -14.3632,-46.721 -30.0742,-65.3281 l -15.709,-18.6074 -198.959,-235.63088 -18.1523,-21.48243 v -0.002 c -11.4003,-13.5168 -27.0664,-13.51758 -27.0664,-13.51758 z M 737.49902,275.45963 h 25 v 200.5 h 195.5 v 25 h -195.5 v 216.5 h -25 v -216.5 h -197.5 v -25 h 197.5 z"
       id="path2018"
       inkscape:export-filename="/home/eduardo/iglesiasana/inicio/logo_iglesiasana_acuamarina-azul.png"
       inkscape:export-xdpi="96"
       inkscape:export-ydpi="96"
       inkscape:connector-curvature="0"
       sodipodi:nodetypes="ccccccscssccccsscscccccccccccscccccccccccccccccccscccccccccccccscccccccccccccccccscccccccccccccccccccc" />
    <rect
       style="opacity:0.98999999;fill:#20989f;fill-opacity:1;stroke:none;stroke-width:25;stroke-linecap:round;stroke-linejoin:miter;stroke-miterlimit:4;stroke-dasharray:none;stroke-opacity:1"
       id="rect1992"
       height="100"
       x="994"
       y="260.04086"
       width="0" />
  </g>
  <g
     inkscape:groupmode="layer"
     id="layer2"
     inkscape:label="Layer 2"
     style="display:inline"
     transform="translate(-274.99805,-159.58203)">
    <path
       style="display:inline;opacity:1;fill:#007aff;fill-opacity:1;stroke:none;stroke-width:15.26099968;stroke-linecap:round;stroke-linejoin:miter;stroke-miterlimit:4;stroke-dasharray:none;stroke-opacity:1"
       d="M 474.99219 -0.203125 C 474.99219 -0.203125 449.3296 -0.20310688 430.6543 21.939453 L 430.6543 21.941406 L 400.91602 57.132812 L 74.994141 443.13281 L 49.257812 473.61328 C 23.518622 504.09448 -0.0078125 531.95761 -0.0078125 580.63281 L -0.0078125 1024.5742 L -0.0078125 1105.6328 C -0.0078125 1147.0541 33.570828 1180.6328 74.992188 1180.6328 L 433.49219 1180.6328 L 433.49219 1180.6074 L 779.74219 1180.6074 L 779.74219 1180.6328 L 874.99219 1180.6328 C 916.41359 1180.6328 949.99219 1147.0541 949.99219 1105.6328 L 949.99219 1024.5742 L 949.99219 580.63281 C 949.99219 531.95761 926.46572 504.09458 900.72852 473.61328 L 874.99219 443.13281 L 549.07031 57.132812 L 519.35742 21.941406 C 500.65942 -0.20329375 474.99219 -0.203125 474.99219 -0.203125 z M 438.22656 480.06836 L 511.51562 480.06836 L 511.51562 656.38867 L 682.98047 656.38867 L 682.98047 680.63281 L 682.99219 680.63281 L 682.99219 705.63281 L 682.98047 705.63281 L 682.98047 729.86914 L 511.51562 729.86914 L 511.51562 922.125 L 487.49219 922.125 L 487.49219 922.13281 L 462.49219 922.13281 L 462.49219 922.125 L 438.22656 922.125 L 438.22656 729.86914 L 264.98828 729.86914 L 264.98828 656.38867 L 438.22656 656.38867 L 438.22656 480.06836 z "
       transform="translate(274.99805,159.58203)"
       id="path864" />
  </g>
</svg>
