<?xml version="1.0" encoding="UTF-8" standalone="no"?>
<!-- Created with Inkscape (http://www.inkscape.org/) -->

<svg
   xmlns:dc="http://purl.org/dc/elements/1.1/"
   xmlns:cc="http://creativecommons.org/ns#"
   xmlns:rdf="http://www.w3.org/1999/02/22-rdf-syntax-ns#"
   xmlns:svg="http://www.w3.org/2000/svg"
   xmlns="http://www.w3.org/2000/svg"
   xmlns:xlink="http://www.w3.org/1999/xlink"
   xmlns:sodipodi="http://sodipodi.sourceforge.net/DTD/sodipodi-0.dtd"
   xmlns:inkscape="http://www.inkscape.org/namespaces/inkscape"
   width="1484.1666"
   height="1186.6698"
   viewBox="0 0 1484.1666 1186.6698"
   version="1.1"
   id="svg989"
   inkscape:version="0.92.5 (2060ec1f9f, 2020-04-08)"
   sodipodi:docname="icono_iglesiasana_simple.svg"
   inkscape:export-filename="/home/eduardo/iglesiasana/inicio/logo_iglesiasana.png"
   inkscape:export-xdpi="96"
   inkscape:export-ydpi="96">
  <defs
     id="defs983">
    <linearGradient
       inkscape:collect="always"
       id="linearGradient845">
      <stop
         style="stop-color:#000097;stop-opacity:1"
         offset="0"
         id="stop841" />
      <stop
         id="stop849"
         offset="0.24229552"
         style="stop-color:#005eff;stop-opacity:0.96078431;" />
      <stop
         id="stop845"
         offset="0.5"
         style="stop-color:#00bcff;stop-opacity:0.9254902;" />
      <stop
         style="stop-color:#00ddff;stop-opacity:0.88627451;"
         offset="0.64477384"
         id="stop847" />
      <stop
         style="stop-color:#ffffff;stop-opacity:1"
         offset="1"
         id="stop843" />
    </linearGradient>
    <filter
       style="color-interpolation-filters:sRGB"
       inkscape:label="Feather"
       id="filter10753"
       x="-0.0096005853"
       y="-0.010162292"
       width="1.0192012"
       height="1.0203246">
      <feGaussianBlur
         stdDeviation="5"
         result="blur"
         id="feGaussianBlur10745" />
      <feComposite
         in="SourceGraphic"
         in2="blur"
         operator="atop"
         result="composite1"
         id="feComposite10747" />
      <feComposite
         in2="composite1"
         operator="in"
         result="composite2"
         id="feComposite10749" />
      <feComposite
         in2="composite2"
         operator="in"
         result="composite3"
         id="feComposite10751" />
    </filter>
    <filter
       style="color-interpolation-filters:sRGB"
       inkscape:label="Blur"
       id="filter14693"
       x="-0.0096005853"
       y="-0.010162292"
       width="1.0192012"
       height="1.0203246">
      <feGaussianBlur
         stdDeviation="5 5"
         result="blur"
         id="feGaussianBlur14691" />
    </filter>
    <filter
       inkscape:collect="always"
       style="color-interpolation-filters:sRGB"
       id="filter876"
       x="-0.0023336716"
       width="1.0046673"
       y="-0.002470209"
       height="1.0049404">
      <feGaussianBlur
         inkscape:collect="always"
         stdDeviation="1.2153799"
         id="feGaussianBlur878" />
    </filter>
    <filter
       height="1.0203246"
       width="1.0192012"
       y="-0.010162292"
       x="-0.0096005853"
       id="filter10753-3"
       inkscape:label="Feather"
       style="color-interpolation-filters:sRGB">
      <feGaussianBlur
         id="feGaussianBlur10745-5"
         result="blur"
         stdDeviation="5" />
      <feComposite
         id="feComposite10747-6"
         result="composite1"
         operator="atop"
         in2="blur"
         in="SourceGraphic" />
      <feComposite
         id="feComposite10749-2"
         result="composite2"
         operator="in"
         in2="composite1" />
      <feComposite
         id="feComposite10751-9"
         result="composite3"
         operator="in"
         in2="composite2" />
    </filter>
    <filter
       height="1.0203246"
       width="1.0192012"
       y="-0.010162292"
       x="-0.0096005853"
       id="filter14693-1"
       inkscape:label="Blur"
       style="color-interpolation-filters:sRGB">
      <feGaussianBlur
         id="feGaussianBlur14691-2"
         result="blur"
         stdDeviation="5 5" />
    </filter>
    <linearGradient
       inkscape:collect="always"
       xlink:href="#linearGradient845"
       id="linearGradient1129"
       gradientUnits="userSpaceOnUse"
       gradientTransform="translate(227.10088,-898.93733)"
       x1="-246.87503"
       y1="1028.4614"
       x2="1312.6053"
       y2="-417.36615"
       spreadMethod="repeat" />
  </defs>
  <sodipodi:namedview
     id="base"
     pagecolor="#35312f"
     bordercolor="#0000c3"
     borderopacity="1"
     inkscape:pageopacity="0"
     inkscape:pageshadow="2"
     inkscape:zoom="0.056568542"
     inkscape:cx="-940.97038"
     inkscape:cy="-93.430813"
     inkscape:document-units="px"
     inkscape:current-layer="layer1"
     showgrid="false"
     inkscape:showpageshadow="false"
     units="px"
     inkscape:snap-bbox="true"
     inkscape:bbox-nodes="true"
     showguides="false"
     inkscape:guide-bbox="true"
     inkscape:snap-intersection-paths="true"
     inkscape:snap-bbox-midpoints="true"
     inkscape:snap-bbox-edge-midpoints="true"
     inkscape:window-width="1366"
     inkscape:window-height="704"
     inkscape:window-x="0"
     inkscape:window-y="27"
     inkscape:window-maximized="1"
     inkscape:snap-global="false"
     showborder="true"
     inkscape:pagecheckerboard="false"
     width="1500px"
     fit-margin-top="0"
     fit-margin-left="0"
     fit-margin-right="0"
     fit-margin-bottom="0">
    <sodipodi:guide
       position="-232.81513,-1215.1248"
       orientation="0,1"
       id="guide1544"
       inkscape:locked="false" />
    <sodipodi:guide
       position="-227.10085,1287.7324"
       orientation="0,1"
       id="guide1552"
       inkscape:locked="false" />
    <sodipodi:guide
       position="-227.10085,1287.7324"
       orientation="1,0"
       id="guide1554"
       inkscape:locked="false" />
    <sodipodi:guide
       position="2272.8991,1287.7324"
       orientation="1,0"
       id="guide1556"
       inkscape:locked="false" />
    <sodipodi:guide
       position="1022.8991,-536.76682"
       orientation="0,1"
       id="guide1575"
       inkscape:locked="false" />
    <sodipodi:guide
       position="522.89915,907.59197"
       orientation="1,0"
       id="guide1701"
       inkscape:locked="false" />
    <sodipodi:guide
       position="1522.8991,907.59197"
       orientation="1,0"
       id="guide1703"
       inkscape:locked="false" />
    <sodipodi:guide
       position="1497.8991,913.30627"
       orientation="1,0"
       id="guide1707"
       inkscape:locked="false" />
    <sodipodi:guide
       position="1422.8991,-461.76682"
       orientation="1,0"
       id="guide1715"
       inkscape:locked="false" />
    <sodipodi:guide
       position="354.39914,-376.76682"
       orientation="0,1"
       id="guide1891"
       inkscape:locked="false" />
    <sodipodi:guide
       position="-775.63995,-494.26722"
       orientation="1,0"
       id="guide2008"
       inkscape:locked="false" />
    <sodipodi:guide
       position="-227.10085,-462.26762"
       orientation="0,-1"
       id="guide13959"
       inkscape:locked="false" />
  </sodipodi:namedview>
  <metadata
     id="metadata986">
    <rdf:RDF>
      <cc:Work
         rdf:about="">
        <dc:format>image/svg+xml</dc:format>
        <dc:type
           rdf:resource="http://purl.org/dc/dcmitype/StillImage" />
        <dc:title></dc:title>
      </cc:Work>
    </rdf:RDF>
  </metadata>
  <g
     inkscape:label="Layer 1"
     inkscape:groupmode="layer"
     id="layer1"
     transform="translate(-227.10085,1263.3957)"
     style="display:inline">
    <rect
       style="opacity:0.98999999;fill:#20989f;fill-opacity:1;stroke:none;stroke-width:25;stroke-linecap:round;stroke-linejoin:miter;stroke-miterlimit:4;stroke-dasharray:none;stroke-opacity:1"
       id="rect1992"
       height="100"
       x="994"
       y="260.04086"
       width="0" />
    <path
       style="opacity:1;fill:url(#linearGradient1129);fill-opacity:1;stroke:none;stroke-width:15.26099968;stroke-linecap:round;stroke-linejoin:miter;stroke-miterlimit:4;stroke-dasharray:none;stroke-opacity:1;filter:url(#filter876)"
       d="m 970.19081,-1260.4768 c 0,0 -25.6626,10e-5 -44.3379,22.1426 v 0 l -29.7383,35.1914 -325.92176,385.99998 -25.73633,30.4804 c -25.7392,30.48119 -49.26562,58.34439 -49.26562,107.01959 v 443.94141 81.0586 c 0,41.4213 33.5786,75.000001 75,75.000001 h 358.49991 v -0.0254 h 346.24999 v 0.0254 h 95.25 c 41.4214,0 75,-33.578701 75,-75.000001 v -81.0586 -443.94141 c 0,-48.6752 -23.5265,-76.5383 -49.2637,-107.01959 l -25.7363,-30.4804 -325.9219,-385.99998 -29.7128,-35.1914 c -18.69809,-22.1447 -44.36529,-22.1446 -44.36529,-22.1446 z m -237.24014,62.0625 v 0 c 0,0 -20.55302,3e-4 -35.51172,17.7363 l -23.82031,28.1875 -261.0586,309.18158 -20.61524,24.4141 c -20.6152,24.4152 -39.46094,46.7327 -39.46094,85.72069 v 355.59181 64.9277 c 0.0282,31.3732 24.19547,57.4418 55.47657,59.8438 0.0417,-149.144 -0.19984,-298.2923 0.16406,-447.43161 0.9694,-34.3392 15.64537,-66.9545 36.95117,-93.45899 35.8585,-44.0288 73.17003,-86.867 109.58203,-130.4414 71.80421,-84.90758 143.4236,-169.97798 215.2129,-254.89848 l -1.3809,-1.6367 c -14.9769,-17.7377 -35.53902,-17.7383 -35.53902,-17.7383 z m 472.46473,0 c 0,0 -20.5602,6e-4 -35.5371,17.7383 l -1.3828,1.6367 c 71.7893,84.9205 143.4087,169.9909 215.2129,254.89848 36.412,43.5744 73.7235,86.4126 109.582,130.4414 21.3058,26.50449 35.9818,59.11989 36.9512,93.45899 0.3639,149.13931 0.1243,298.28761 0.166,447.43161 31.2811,-2.402 55.4464,-28.4706 55.4746,-59.8438 v -64.9277 -355.59181 c 0,-38.98799 -18.8457,-61.30549 -39.4609,-85.72069 l -20.6133,-24.4141 -261.0586,-309.18158 -23.8203,-28.1875 c -14.9587,-17.736 -35.5137,-17.7363 -35.5137,-17.7363 z m -684.9081,45.9961 v 0 c -0.011,0 -15.6702,0.01 -27.0664,13.5176 l -18.1543,21.4824 -198.95508,235.63078 -15.71094,18.6074 c -15.7111,18.6071 -30.07226,35.6147 -30.07226,65.3282 v 271.0019 49.4825 c 0.015,24.7773 19.73816,45.0469 44.50586,45.7382 -0.083,-110.0397 -9.6e-4,-220.08471 0.0605,-330.12301 0.381,-30.70279 14.00623,-59.74619 33.45704,-82.99019 80.94689,-96.43192 162.37684,-192.53218 243.58984,-288.74028 l -4.57422,-5.4179 c -11.4102,-13.5133 -27.06908,-13.5196 -27.08008,-13.5196 z m 897.3534,0 c -0.011,0 -15.6698,0.01 -27.08,13.5196 l -4.5743,5.4179 c 81.213,96.2081 162.643,192.30836 243.5899,288.74028 19.4508,23.244 33.076,52.2874 33.457,82.99019 0.062,110.0383 0.1436,220.08331 0.061,330.12301 24.7677,-0.6913 44.4908,-20.9609 44.5058,-45.7382 v -49.4825 -271.0019 c 0,-29.7135 -14.3611,-46.7211 -30.0722,-65.3282 l -15.711,-18.6074 -198.9551,-235.63078 -18.1543,-21.4824 c -11.3962,-13.5076 -27.0554,-13.5176 -27.0664,-13.5176 z m -484.43549,372.21288 h 73.28909 v 176.32029 h 171.4648 v 24.2442 h 0.014 v 25.00001 h -0.014 v 24.2363 h -171.4648 v 192.2558 h -24.02349 v 0.008 h -25 v -0.008 h -24.2656 v -192.2558 H 760.18699 v -73.48051 h 173.23822 z"
       id="path1127"
       inkscape:connector-curvature="0" />
  </g>
  <g
     inkscape:groupmode="layer"
     id="layer2"
     inkscape:label="Layer 2"
     style="display:inline"
     transform="translate(-227.10085,898.93732)" />
</svg>
