<?xml version="1.0" encoding="UTF-8" standalone="no"?>
<!-- Created with Inkscape (http://www.inkscape.org/) -->

<svg
   xmlns:dc="http://purl.org/dc/elements/1.1/"
   xmlns:cc="http://creativecommons.org/ns#"
   xmlns:rdf="http://www.w3.org/1999/02/22-rdf-syntax-ns#"
   xmlns:svg="http://www.w3.org/2000/svg"
   xmlns="http://www.w3.org/2000/svg"
   xmlns:xlink="http://www.w3.org/1999/xlink"
   xmlns:sodipodi="http://sodipodi.sourceforge.net/DTD/sodipodi-0.dtd"
   xmlns:inkscape="http://www.inkscape.org/namespaces/inkscape"
   width="450"
   height="800"
   viewBox="0 0 119.0625 211.66667"
   version="1.1"
   id="svg821"
   inkscape:version="0.92.5 (2060ec1f9f, 2020-04-08)"
   sodipodi:docname="ideal_y_relevante_portada.svg"
   inkscape:export-filename="/home/eduardo/iglesiasana/inicio/frontal_ideal_y_relevante_2.png"
   inkscape:export-xdpi="96"
   inkscape:export-ydpi="96">
  <defs
     id="defs815">
    <linearGradient
       inkscape:collect="always"
       id="linearGradient927">
      <stop
         style="stop-color:#000000;stop-opacity:1"
         offset="0"
         id="stop923" />
      <stop
         id="stop931"
         offset="0.5"
         style="stop-color:#0b0000;stop-opacity:1" />
      <stop
         style="stop-color:#110001;stop-opacity:1"
         offset="1"
         id="stop925" />
    </linearGradient>
    <filter
       height="1.0203246"
       width="1.0192012"
       y="-0.010162292"
       x="-0.0096005851"
       id="filter10753"
       inkscape:label="Feather"
       style="color-interpolation-filters:sRGB">
      <feGaussianBlur
         id="feGaussianBlur10745"
         result="blur"
         stdDeviation="5" />
      <feComposite
         id="feComposite10747"
         result="composite1"
         operator="atop"
         in2="blur"
         in="SourceGraphic" />
      <feComposite
         id="feComposite10749"
         result="composite2"
         operator="in"
         in2="composite1" />
      <feComposite
         id="feComposite10751"
         result="composite3"
         operator="in"
         in2="composite2" />
    </filter>
    <filter
       height="1.0203246"
       width="1.0192012"
       y="-0.010162292"
       x="-0.0096005851"
       id="filter14693"
       inkscape:label="Blur"
       style="color-interpolation-filters:sRGB;">
      <feGaussianBlur
         id="feGaussianBlur14691"
         result="blur"
         stdDeviation="5 5" />
    </filter>
    <linearGradient
       inkscape:collect="always"
       xlink:href="#linearGradient927"
       id="linearGradient929"
       x1="38.295692"
       y1="54.847977"
       x2="81.07428"
       y2="-0.15067005"
       gradientUnits="userSpaceOnUse"
       gradientTransform="matrix(1.2274178,0,0,1.2274178,-13.573426,-6.2195697)" />
    <filter
       inkscape:collect="always"
       style="color-interpolation-filters:sRGB"
       id="filter975"
       x="-0.006868748"
       width="1.0137375"
       y="-0.005326334"
       height="1.0106527">
      <feGaussianBlur
         inkscape:collect="always"
         stdDeviation="0.14823804"
         id="feGaussianBlur977" />
    </filter>
  </defs>
  <sodipodi:namedview
     id="base"
     pagecolor="#000000"
     bordercolor="#666666"
     borderopacity="1.0"
     inkscape:pageopacity="0"
     inkscape:pageshadow="2"
     inkscape:zoom="0.50000001"
     inkscape:cx="-52.808354"
     inkscape:cy="434.06976"
     inkscape:document-units="px"
     inkscape:current-layer="layer3"
     showgrid="false"
     units="px"
     inkscape:window-width="1366"
     inkscape:window-height="704"
     inkscape:window-x="0"
     inkscape:window-y="27"
     inkscape:window-maximized="1"
     inkscape:pagecheckerboard="0"
     inkscape:snap-global="true"
     borderlayer="true"
     inkscape:showpageshadow="false"
     inkscape:snap-bbox="true"
     inkscape:snap-bbox-edge-midpoints="true"
     showguides="false"
     inkscape:guide-bbox="true"
     inkscape:bbox-nodes="true"
     inkscape:snap-bbox-midpoints="true">
    <sodipodi:guide
       position="59.53125,211.66667"
       orientation="1,0"
       id="guide869"
       inkscape:locked="false" />
    <sodipodi:guide
       position="13.229168,176.36349"
       orientation="1,0"
       id="guide876"
       inkscape:locked="false" />
    <sodipodi:guide
       position="105.83333,176.36349"
       orientation="1,0"
       id="guide878"
       inkscape:locked="false" />
    <sodipodi:guide
       position="8.8817841e-16,105.83333"
       orientation="0,1"
       id="guide880"
       inkscape:locked="false" />
    <sodipodi:guide
       position="13.229168,165.36459"
       orientation="0,1"
       id="guide905"
       inkscape:locked="false" />
  </sodipodi:namedview>
  <metadata
     id="metadata818">
    <rdf:RDF>
      <cc:Work
         rdf:about="">
        <dc:format>image/svg+xml</dc:format>
        <dc:type
           rdf:resource="http://purl.org/dc/dcmitype/StillImage" />
        <dc:title />
      </cc:Work>
    </rdf:RDF>
  </metadata>
  <g
     inkscape:label="Layer 1"
     inkscape:groupmode="layer"
     id="layer1"
     transform="translate(0,-85.33331)"
     style="display:none"
     sodipodi:insensitive="true">
    <path
       style="fill:#045657;fill-opacity:1;stroke:none;stroke-width:0.33418652px;stroke-linecap:butt;stroke-linejoin:miter;stroke-opacity:1"
       d="m 33.52871,270.76302 c -3.441336,-13.40254 2.621315,-18.12144 7.597026,-22.93196 6.824174,-6.59764 11.688261,-11.52445 13.231791,-16.15981 5.765243,-19.31853 17.202846,-29.50829 32.969237,-33.83102 2.699179,-0.78066 5.178281,-0.7274 5.644133,-0.7196 2.726388,-0.3215 2.002901,-3.46789 1.386754,-5.10922 -3.44899,-9.0349 -26.412461,-25.8551 -40.330983,-5.26006 -12.128546,17.94645 -8.643062,39.1084 -15.948187,50.43825 -4.095595,6.35208 -9.693432,14.32521 -8.765784,20.51959 0.92764,6.19437 4.216016,13.05383 4.216016,13.05383 z"
       id="path1379"
       inkscape:connector-curvature="0"
       sodipodi:nodetypes="csccccssscc" />
    <path
       style="display:inline;fill:#045657;fill-opacity:1;stroke:none;stroke-width:0.33418652px;stroke-linecap:butt;stroke-linejoin:miter;stroke-opacity:1"
       d="m 90.36814,198.93896 c 1.141893,-0.21061 1.918647,-0.0572 1.499039,1.02937 -0.36546,0.94638 -1.40426,2.41243 -2.197408,3.17515 -0.793153,0.76272 -3.791563,2.63133 -4.431469,3.04914 -0.639911,0.41781 -1.043342,1.88632 -1.11796,2.65852 -0.07461,0.77219 0.06306,3.29492 -0.0058,4.00771 -0.06888,0.7128 -0.256543,1.41411 -1.883295,1.49674 -4.379507,0.21087 -5.460553,8.10129 -10.301472,9.19681 -3.367034,-0.35756 -3.180039,-2.1034 -5.557137,-3.29486 -0.921688,-0.38883 -1.684222,0.18404 -2.019471,0.83002 -2.225914,4.28906 -4.5886,9.55523 -5.32672,13.8338 -0.11614,0.67321 -0.380907,0.66171 -0.698052,0.64783 -0.735413,-0.0322 -0.966746,0.0398 -1.805233,-0.0949 -0.442709,-0.0711 -1.485624,-0.25184 -1.216888,-1.179 3.617836,-15.11859 14.574171,-31.2743 35.061876,-35.35637 z"
       id="path1415"
       inkscape:connector-curvature="0"
       sodipodi:nodetypes="cssssscccssssccc" />
    <path
       style="display:inline;fill:#045657;fill-opacity:1;stroke:none;stroke-width:0.33418652px;stroke-linecap:butt;stroke-linejoin:miter;stroke-opacity:1"
       d="m 50.525055,248.82969 c -0.759176,-0.52828 -2.52831,-1.43493 -3.488678,-2.44658 -0.299622,-0.31562 -0.522442,-0.89974 -0.296238,-1.27152 0.693127,-1.13921 1.754221,-2.17686 2.45661,-2.92547 4.324137,-4.60869 3.728017,-4.9424 6.51164,-5.42549 2.286365,-0.39679 3.435357,0.75632 6.537193,2.39359 5.504105,2.90526 17.795182,11.50557 19.224614,12.23948 0.734866,0.3773 2.224753,1.17424 3.29941,-0.64045 1.074665,-1.81471 11.114731,-18.62873 11.581653,-22.14469 0.466915,-3.51598 -0.197225,-6.9476 1.657205,-9.49793 1.45277,-1.99789 1.47046,-1.80876 2.697766,-4.22888 2.03171,-4.00628 2.29613,-6.93618 2.58553,-8.14375 0,0 0.29874,-1.23019 1.40437,-0.88354 1.10562,0.34666 1.15181,1.73006 1.06945,1.96194 -0.0823,0.23186 -0.47465,3.67128 -0.79263,4.47993 -0.31794,0.80864 -0.32541,2.1269 -0.3541,2.4239 -0.0287,0.29699 3.77204,-4.91149 4.3104,-5.51897 0.53832,-0.60747 1.45374,-3.87646 1.45374,-3.87646 0,0 1.23976,-5.60374 1.76092,-6.03301 0.73804,-1.96166 1.90625,-0.71603 1.59517,0.18749 -0.32943,0.92744 -1.22892,8.02956 -1.4645,8.60634 -0.23562,0.57677 -0.1475,0.2855 -1.37714,3.70397 -1.22963,3.41849 -6.7387,12.35891 -7.00411,13.35073 -0.26541,0.9918 -1.18377,2.59883 -1.84202,4.14619 -0.65825,1.54737 -7.244514,24.15731 -8.631119,28.57985 -1.386607,4.42253 -1.567373,4.52723 -2.345039,6.3706 -1.340844,3.54953 -4.531432,3.09141 -6.532034,2.27596 C 58.223088,254.92655 57.32554,253.33823 50.525055,248.82969 Z"
       id="path1417"
       inkscape:connector-curvature="0"
       sodipodi:nodetypes="csssasssssssssssscccsssssccc" />
    <path
       style="display:inline;fill:#045657;fill-opacity:1;stroke:none;stroke-width:0.33418652px;stroke-linecap:butt;stroke-linejoin:miter;stroke-opacity:1"
       d="m 43.188999,278.13725 c 0.43927,-3.50906 -1.676301,-14.99907 -3.134655,-18.57756 -0.729178,-1.78924 -1.275235,-3.61488 -1.452695,-5.37014 -0.177459,-1.75527 1.35783,-3.16126 2.575582,-4.32139 2.218146,-2.11319 2.685925,-3.08569 4.169531,-2.54953 1.483606,0.53615 4.060469,2.45843 5.587282,3.509 7.682201,5.28596 10.211897,6.61552 24.014628,13.01481 10.240662,6.17064 2.015705,14.51598 -2.758942,20.40379 -8.357047,5.26833 -29.439991,-2.5999 -29.000729,-6.10898 z"
       id="path1419"
       inkscape:connector-curvature="0"
       sodipodi:nodetypes="zssscscczz" />
    <path
       style="display:inline;fill:#045657;fill-opacity:1;stroke:none;stroke-width:0.31854343px;stroke-linecap:butt;stroke-linejoin:miter;stroke-opacity:1"
       d="m 74.062162,243.87178 c 3.255498,-5.35266 8.981522,-10.826 9.426587,-14.17738 0.445061,-3.3514 -0.268498,-6.05173 1.153487,-8.70736 1.111497,-2.07577 1.2865,-2.63872 2.666895,-5.10449 2.091552,-3.73611 2.519379,-5.88386 2.795232,-7.03492 0,0 0.284754,-1.17261 1.338625,-0.84217 1.053882,0.33042 1.09791,1.64907 1.019397,1.87009 -0.624433,6.08542 -4.213006,4.27832 -0.866523,1.67344 0.513128,-0.57904 1.594514,-2.7624 1.594514,-2.7624 0,0 3.07785,-5.45301 3.425712,-6.42087 0.491547,-0.92724 1.292203,-0.17172 1.292203,-0.17172 0.03648,-0.38007 1.019687,-0.0182 0.968401,0.78483 0.166749,-0.30435 0.669212,0.0726 0.660721,0.86598 0,0 0.579417,-0.092 0.521827,1.23125 -0.0164,1.14861 -0.633141,5.7049 -0.857711,6.25467 -0.22457,0.54978 -0.625346,1.79823 -1.119898,3.19186 -1.158087,3.26345 -4.901899,8.80379 -6.345513,11.00595 -0.536535,0.81846 -2.1867,3.33708 -2.81413,4.81201 -0.627435,1.47494 -1.881722,10.50973 -4.976699,19.13925 -0.208381,0.58102 -1.374437,0.89427 -1.905511,0.57969 -2.711066,-1.60589 -4.661894,-2.77218 -7.954626,-5.06729 -0.254082,-0.17711 -0.300112,-0.66484 -0.02299,-1.12048 z"
       id="path9680"
       inkscape:connector-curvature="0"
       sodipodi:nodetypes="csssssccccccccssssssssc" />
  </g>
  <g
     inkscape:groupmode="layer"
     id="layer2"
     inkscape:label="Fondo"
     style="display:inline"
     sodipodi:insensitive="true">
    <rect
       style="display:inline;opacity:1;fill:#000000;fill-opacity:1;stroke-width:4.03780603;stroke-linecap:round"
       id="rect1448"
       width="119.0625"
       height="211.66667"
       x="8.8817842e-16"
       y="-79.375"
       transform="translate(0,79.375001)" />
  </g>
  <g
     inkscape:groupmode="layer"
     id="layer3"
     inkscape:label="Imagen unida"
     style="display:inline;opacity:0.98999999"
     transform="translate(0,79.375)">
    <ellipse
       style="opacity:1;fill:#00fbff;fill-opacity:1;stroke:#040000;stroke-width:0.19958113;stroke-linecap:round;stroke-miterlimit:4;stroke-dasharray:none;stroke-opacity:1"
       id="path953"
       cx="59.68499"
       cy="27.348656"
       rx="32.973129"
       ry="32.973125" />
    <circle
       style="opacity:1;fill:#ffffff;fill-opacity:1;stroke:#040000;stroke-width:0.12487837;stroke-linecap:round;stroke-miterlimit:4;stroke-dasharray:none;stroke-opacity:1"
       id="path921"
       cx="59.53125"
       cy="-16.217615"
       r="4.058547" />
    <path
       style="display:inline;fill:url(#linearGradient929);fill-opacity:1;stroke:none;stroke-width:0.20465158px;stroke-linecap:butt;stroke-linejoin:miter;stroke-opacity:1;filter:url(#filter975)"
       d="m 59.027172,-6.0477766 c -3.528586,0.044861 -7.113209,1.6728845 -10.043171,6.0083052 -7.427367,10.9901744 -5.293019,23.9494944 -9.766585,30.8877514 -2.508089,3.889933 -5.935874,8.772632 -5.367791,12.565992 0.568073,3.79335 2.581678,7.993773 2.581678,7.993773 -2.10743,-8.207543 1.605215,-11.097321 4.652278,-14.043224 4.179036,-4.04031 7.157717,-7.057381 8.102952,-9.896014 C 52.717098,15.638378 59.721539,9.398305 69.376676,6.7511241 71.029618,6.2730574 72.547769,6.3058348 72.833051,6.3106107 74.502656,6.1137284 74.059434,4.1869021 73.682112,3.181774 72.296035,-0.44916422 65.76356,-6.1334325 59.027172,-6.0477766 Z M 85.132265,7.0027089 c -0.181922,0.012701 -0.38844,0.186864 -0.557929,0.6373495 -0.319149,0.2628791 -1.078486,3.6946686 -1.078486,3.6946686 0,0 -0.560542,2.00176 -0.8902,2.373766 -0.329686,0.372014 -2.657169,3.561664 -2.639593,3.37979 0.01756,-0.18188 0.02207,-0.989311 0.216776,-1.484512 0.194724,-0.495206 0.43505,-2.601401 0.485448,-2.743391 0.05044,-0.142001 0.022,-0.988992 -0.655071,-1.201282 -0.677075,-0.212283 -0.859824,0.540829 -0.859824,0.540829 -0.177224,0.739502 -0.339367,2.534016 -1.583564,4.987409 -0.751585,1.482049 -0.762262,1.366108 -1.65192,2.58959 -1.13563,1.561792 -0.728953,3.663395 -1.014888,5.816537 -0.285937,2.153131 -6.434388,12.449636 -7.092498,13.56094 -0.658106,1.111294 -1.570574,0.623147 -2.020596,0.392094 -0.875366,-0.449438 -8.401982,-5.715893 -11.772624,-7.495037 -1.899526,-1.002642 -2.603394,-1.708832 -4.003534,-1.465841 -1.704655,0.295837 -1.339349,0.50021 -3.987395,3.322512 -0.430135,0.458439 -1.079988,1.093841 -1.50445,1.791478 -0.138524,0.227673 -0.0021,0.585212 0.181331,0.778492 0.588118,0.619523 1.671511,1.174925 2.136421,1.498437 4.16453,2.760973 4.714186,3.733596 20.832237,10.828942 1.225145,0.499371 3.178939,0.779997 4.000054,-1.393689 0.476231,-1.128858 0.586955,-1.193016 1.436093,-3.901317 0.849141,-2.708306 4.882411,-16.554539 5.285513,-17.50213 0.403104,-0.947584 0.965647,-1.931595 1.128181,-2.53896 0.162534,-0.607378 3.53629,-6.082305 4.289293,-8.175744 0.75302,-2.093427 0.69907,-1.915178 0.843362,-2.268385 C 84.79867,12.672043 85.349517,8.3228847 85.551251,7.7549331 85.670322,7.4091187 85.435447,6.9815329 85.132265,7.0027089 Z M 71.713732,7.374548 c -0.138916,-0.00113 -0.299869,0.017123 -0.474691,0.04937 -12.546409,2.4998077 -19.255969,12.393436 -21.471485,21.651873 -0.164571,0.567781 0.474153,0.67862 0.745262,0.722162 0.51348,0.08249 0.655036,0.0382 1.105392,0.0579 0.194218,0.0085 0.356417,0.01572 0.42754,-0.396523 0.452014,-2.620145 1.898948,-5.845069 3.262069,-8.471635 0.2053,-0.39559 0.672295,-0.746665 1.236724,-0.508552 1.455706,0.729634 1.341282,1.798784 3.403212,2.01775 2.964515,-0.670884 3.626356,-5.502905 6.308308,-5.632038 0.996204,-0.05059 1.111319,-0.479958 1.153496,-0.91647 0.04216,-0.436502 -0.0422,-1.981266 0.0035,-2.454146 0.0457,-0.472884 0.292629,-1.372325 0.684503,-1.628185 0.39187,-0.255859 2.228242,-1.400032 2.713961,-1.8671114 0.485713,-0.4670799 1.121784,-1.3650945 1.345586,-1.9446463 0.192722,-0.4990521 -0.02661,-0.6765542 -0.443358,-0.6797552 z m 3.734227,1.865214 c -0.130281,0.0018 -0.269718,0.069982 -0.3826,0.2829141 -0.213026,0.5927049 -2.098129,3.9320159 -2.098129,3.9320159 0,0 -0.225056,0.452347 -0.474375,0.900645 0.0099,-0.07665 0.02047,-0.152668 0.02881,-0.233864 0.04808,-0.13535 0.02101,-0.942923 -0.624374,-1.145268 -0.645381,-0.202357 -0.819635,0.515829 -0.819635,0.515829 -0.168929,0.704894 -0.431206,2.020023 -1.712046,4.307967 -0.845337,1.510008 -0.952267,1.854816 -1.632934,3.12599 -0.870805,1.62628 -0.433789,3.28 -0.706337,5.332355 -0.272554,2.052343 -3.779236,5.404177 -5.772861,8.682077 -0.169708,0.279029 -0.141357,0.577625 0.01423,0.686087 2.016427,1.405494 3.211047,2.119778 4.87127,3.103204 0.325221,0.192643 1.039176,8.06e-4 1.166786,-0.355069 1.895323,-5.284607 2.663592,-10.81749 3.047824,-11.720725 0.384229,-0.903228 1.394558,-2.44566 1.723124,-2.946875 0.884052,-1.348575 3.176931,-4.741154 3.886126,-6.739649 0.30286,-0.853442 0.548248,-1.618093 0.685772,-1.95477 0.137523,-0.336672 0.514963,-3.127038 0.525005,-3.830433 0.03527,-0.810343 -0.319307,-0.753808 -0.319307,-0.753808 0.0051,-0.4858556 -0.302639,-0.7167678 -0.404754,-0.5303872 0.03139,-0.4917638 -0.57071,-0.7134519 -0.59305,-0.4807029 0,0 -0.191413,-0.1806145 -0.408549,-0.1775329 z M 43.211772,36.962286 c -0.597037,0.0083 -0.992874,0.598573 -2.096545,1.650021 -0.745737,0.710448 -1.685912,1.571649 -1.577238,2.646553 0.108675,1.0749 0.443029,2.192945 0.889569,3.288653 0.893077,2.191421 2.18865,9.227512 1.919647,11.376415 -0.269,2.148917 12.641978,6.967447 17.759727,3.741189 2.923934,-3.60562 7.96083,-8.716281 1.68958,-12.495103 -8.452617,-3.918843 -10.002041,-4.732986 -14.706524,-7.970042 -0.935001,-0.643354 -2.513022,-1.820431 -3.421564,-2.148761 -0.170349,-0.06156 -0.318872,-0.09084 -0.456652,-0.08893 z"
       id="path1508"
       inkscape:export-xdpi="96"
       inkscape:export-ydpi="96"
       inkscape:connector-curvature="0"
       transform="matrix(0.81471854,0,0,0.81471854,11.058522,5.0671988)" />
    <flowRoot
       xml:space="preserve"
       id="flowRoot829"
       style="font-style:normal;font-variant:normal;font-weight:normal;font-stretch:normal;font-size:80px;line-height:1.25;font-family:Anton;-inkscape-font-specification:Anton;letter-spacing:0px;word-spacing:0px;fill:#ffffff;fill-opacity:1;stroke:none"
       transform="matrix(0.34672985,0,0,0.34672985,6.8409535,-91.501735)"><flowRegion
         id="flowRegion831"
         style="font-style:normal;font-variant:normal;font-weight:normal;font-stretch:normal;font-size:80px;font-family:Anton;-inkscape-font-specification:Anton;fill:#ffffff;fill-opacity:1"><rect
           id="rect833"
           width="360.62448"
           height="123.03658"
           x="72.124893"
           y="109.8638"
           style="font-style:normal;font-variant:normal;font-weight:normal;font-stretch:normal;font-size:80px;font-family:Anton;-inkscape-font-specification:Anton;fill:#ffffff;fill-opacity:1" /></flowRegion><flowPara
         id="flowPara835"
         style="font-style:normal;font-variant:normal;font-weight:normal;font-stretch:normal;font-size:71.22099304px;font-family:'Kaushan Script';-inkscape-font-specification:'Kaushan Script';fill:#ffffff;fill-opacity:1">Ideal </flowPara></flowRoot>    <flowRoot
       xml:space="preserve"
       id="flowRoot851"
       style="font-style:normal;font-variant:normal;font-weight:normal;font-stretch:normal;font-size:80px;line-height:1.25;font-family:'Kaushan Script';-inkscape-font-specification:'Kaushan Script';letter-spacing:4.09083366px;word-spacing:0px;writing-mode:lr-tb;direction:ltr;fill:#ffffff;fill-opacity:1;stroke:none"
       transform="matrix(0.25719097,0,0,0.25719097,-7.5533789,34.303188)"><flowRegion
         id="flowRegion847"
         style="font-style:normal;font-variant:normal;font-weight:normal;font-stretch:normal;font-size:80px;font-family:'Kaushan Script';-inkscape-font-specification:'Kaushan Script';letter-spacing:4.09083366px;writing-mode:lr-tb;direction:ltr;fill:#ffffff;fill-opacity:1"><rect
           id="rect845"
           width="412.07211"
           height="135.25095"
           x="72.124893"
           y="109.8638"
           style="font-style:normal;font-variant:normal;font-weight:normal;font-stretch:normal;font-size:80px;font-family:'Kaushan Script';-inkscape-font-specification:'Kaushan Script';letter-spacing:4.09083366px;writing-mode:lr-tb;direction:ltr;fill:#ffffff;fill-opacity:1" /></flowRegion><flowPara
         id="flowPara849"
         style="font-style:normal;font-variant:normal;font-weight:normal;font-stretch:normal;font-size:92.59635162px;font-family:'Kaushan Script';-inkscape-font-specification:'Kaushan Script';letter-spacing:0px;writing-mode:lr-tb;direction:ltr;fill:#ffffff;fill-opacity:1">Relevante</flowPara></flowRoot>    <flowRoot
       transform="matrix(0.22742156,0,0,0.22742156,-3.1561198,71.474173)"
       style="font-style:normal;font-variant:normal;font-weight:normal;font-stretch:normal;font-size:15.51206398px;line-height:1;font-family:Anton;-inkscape-font-specification:Anton;letter-spacing:0px;word-spacing:0px;writing-mode:lr-tb;direction:ltr;fill:#ffffff;fill-opacity:1;stroke:none"
       id="flowRoot859"
       xml:space="preserve"><flowRegion
         style="font-style:normal;font-variant:normal;font-weight:normal;font-stretch:normal;font-size:15.51206398px;line-height:1;font-family:Anton;-inkscape-font-specification:Anton;writing-mode:lr-tb;direction:ltr;fill:#ffffff;fill-opacity:1"
         id="flowRegion855"><rect
           style="font-style:normal;font-variant:normal;font-weight:normal;font-stretch:normal;font-size:15.51206398px;line-height:1;font-family:Anton;-inkscape-font-specification:Anton;writing-mode:lr-tb;direction:ltr;fill:#ffffff;fill-opacity:1"
           y="109.8638"
           x="72.124893"
           height="334.1236"
           width="412.98715"
           id="rect853" /></flowRegion><flowPara
         style="font-style:normal;font-variant:normal;font-weight:normal;font-stretch:normal;font-size:15.51206405px;line-height:1;font-family:'Bebas Neue';-inkscape-font-specification:'Bebas Neue';text-align:center;letter-spacing:2.4545002px;word-spacing:0px;writing-mode:lr-tb;direction:ltr;text-anchor:middle;fill:#ffffff;fill-opacity:1"
         id="flowPara867">la mujer de Proverbios 31</flowPara><flowPara
         style="font-style:normal;font-variant:normal;font-weight:normal;font-stretch:normal;font-size:15.51206405px;line-height:1;font-family:'Bebas Neue';-inkscape-font-specification:'Bebas Neue';text-align:center;letter-spacing:2.4545002px;word-spacing:0px;writing-mode:lr-tb;direction:ltr;text-anchor:middle;fill:#ffffff;fill-opacity:1"
         id="flowPara861">como argumento para escoger la sabiduría</flowPara></flowRoot>    <flowRoot
       xml:space="preserve"
       id="flowRoot881"
       style="font-style:normal;font-variant:normal;font-weight:normal;font-stretch:normal;font-size:80px;line-height:0.2;font-family:Anton;-inkscape-font-specification:Anton;letter-spacing:0px;word-spacing:0px;writing-mode:lr-tb;direction:ltr;fill:#00ffff;fill-opacity:1;stroke:none;"
       transform="matrix(0.27007224,0,0,0.27007224,-16.611955,85.207142)"><flowRegion
         id="flowRegion873"
         style="font-style:normal;font-variant:normal;font-weight:normal;font-stretch:normal;font-size:80px;line-height:0.2;font-family:Anton;-inkscape-font-specification:Anton;writing-mode:lr-tb;direction:ltr;fill:#00ffff;fill-opacity:1;"><rect
           id="rect871"
           width="418.86523"
           height="91.163918"
           x="72.124893"
           y="109.8638"
           style="font-style:normal;font-variant:normal;font-weight:normal;font-stretch:normal;font-size:80px;line-height:0.2;font-family:Anton;-inkscape-font-specification:Anton;writing-mode:lr-tb;direction:ltr;fill:#00ffff;fill-opacity:1;" /></flowRegion><flowPara
         id="flowPara879"
         style="font-style:normal;font-variant:normal;font-weight:normal;font-stretch:normal;font-size:26.12469673px;line-height:0.2;font-family:'Bebas Neue';-inkscape-font-specification:'Bebas Neue';text-align:center;letter-spacing:2.45898724px;word-spacing:1.95935237px;writing-mode:lr-tb;direction:ltr;text-anchor:middle;fill:#00ffff;fill-opacity:1;">eduardo osteicoechea</flowPara></flowRoot>    <g
       id="g1637"
       transform="matrix(0.01028335,0,0,0.01028335,31.992099,-70.256711)"
       style="fill:#13fefd;fill-opacity:1">
      <g
         style="display:inline;fill:#13fefd;fill-opacity:1"
         transform="translate(141.65885,148.2898)"
         id="layer1-3"
         inkscape:label="Layer 1">
        <path
           id="path2018"
           transform="translate(0,-364.45834)"
           d="m 749.99805,159.58203 c 0,0 -25.66259,2e-5 -44.33789,22.14258 v 0.002 l -29.73828,35.19141 -325.92188,386 -25.73633,30.48047 c -25.73919,30.4812 -49.26562,58.34433 -49.26562,107.01953 v 443.94148 81.0586 c 0,41.4213 33.57864,75 75,75 h 358.5 v -0.025 H 1054.748 v 0.025 h 95.25 c 41.4214,0 75,-33.5787 75,-75 v -81.0586 -443.94148 c 0,-48.6752 -23.5264,-76.53823 -49.2636,-107.01953 l -25.7364,-30.48047 -325.92183,-386 -29.71289,-35.19141 c -18.698,-22.1447 -44.36523,-22.14453 -44.36523,-22.14453 z m -12.5,480.33594 h 25 v 200.5 h 195.5 v 25 h -195.5 V 1081.918 h -25 V 865.41797 h -197.5 v -25 h 197.5 z"
           style="opacity:0.98999999;fill:#13fefd;fill-opacity:1;stroke:none;stroke-width:15.26109982;stroke-linecap:round;stroke-linejoin:miter;stroke-miterlimit:4;stroke-dasharray:none;stroke-opacity:1"
           inkscape:connector-curvature="0" />
        <rect
           width="0"
           y="260.04086"
           x="994"
           height="100"
           id="rect1992"
           style="opacity:0.98999999;fill:#13fefd;fill-opacity:1;stroke:none;stroke-width:25;stroke-linecap:round;stroke-linejoin:miter;stroke-miterlimit:4;stroke-dasharray:none;stroke-opacity:1" />
      </g>
      <g
         style="display:inline;fill:#13fefd;fill-opacity:1"
         inkscape:label="Layer 2"
         id="layer2-3" />
    </g>
    <flowRoot
       transform="matrix(0.26061561,0,0,0.26061561,-5.6409107,-99.023106)"
       style="font-style:normal;font-variant:normal;font-weight:normal;font-stretch:normal;font-size:80px;line-height:0.2;font-family:Anton;-inkscape-font-specification:Anton;letter-spacing:0px;word-spacing:0px;writing-mode:lr-tb;direction:ltr;fill:#13fefd;fill-opacity:1;stroke:none;"
       id="flowRoot1645"
       xml:space="preserve"><flowRegion
         style="font-style:normal;font-variant:normal;font-weight:normal;font-stretch:normal;font-size:80px;line-height:0.2;font-family:Anton;-inkscape-font-specification:Anton;writing-mode:lr-tb;direction:ltr;fill:#13fefd;fill-opacity:1;"
         id="flowRegion1641"><rect
           style="font-style:normal;font-variant:normal;font-weight:normal;font-stretch:normal;font-size:80px;line-height:0.2;font-family:Anton;-inkscape-font-specification:Anton;writing-mode:lr-tb;direction:ltr;fill:#13fefd;fill-opacity:1;"
           y="109.8638"
           x="72.124893"
           height="334.1236"
           width="412.98715"
           id="rect1639" /></flowRegion><flowPara
         style="font-style:normal;font-variant:normal;font-weight:bold;font-stretch:normal;font-size:27.07265091px;line-height:0.2;font-family:Nunito;-inkscape-font-specification:'Nunito Bold';text-align:center;letter-spacing:0px;word-spacing:1.95935237px;writing-mode:lr-tb;direction:ltr;text-anchor:middle;fill:#13fefd;fill-opacity:1;"
         id="flowPara1643">iglesiasana</flowPara></flowRoot>    <flowRoot
       xml:space="preserve"
       id="flowRoot1653"
       style="font-style:normal;font-variant:normal;font-weight:normal;font-stretch:normal;font-size:80px;line-height:0.2;font-family:Anton;-inkscape-font-specification:Anton;letter-spacing:0px;word-spacing:0px;writing-mode:lr-tb;direction:ltr;fill:#13fefd;fill-opacity:1;stroke:none"
       transform="matrix(0.25178561,0,0,0.25178561,-3.1949236,-94.203003)"><flowRegion
         id="flowRegion1649"
         style="font-style:normal;font-variant:normal;font-weight:normal;font-stretch:normal;font-size:80px;line-height:0.2;font-family:Anton;-inkscape-font-specification:Anton;writing-mode:lr-tb;direction:ltr;fill:#13fefd;fill-opacity:1"><rect
           id="rect1647"
           width="412.98715"
           height="334.1236"
           x="72.124893"
           y="109.8638"
           style="font-style:normal;font-variant:normal;font-weight:normal;font-stretch:normal;font-size:80px;line-height:0.2;font-family:Anton;-inkscape-font-specification:Anton;writing-mode:lr-tb;direction:ltr;fill:#13fefd;fill-opacity:1" /></flowRegion><flowPara
         id="flowPara1651"
         style="font-style:normal;font-variant:normal;font-weight:normal;font-stretch:normal;font-size:7.37317705px;line-height:0.2;font-family:Nunito;-inkscape-font-specification:Nunito;text-align:center;letter-spacing:4.88103867px;word-spacing:1.95935237px;writing-mode:lr-tb;direction:ltr;text-anchor:middle;fill:#13fefd;fill-opacity:1">VENEZUELA</flowPara></flowRoot>    <text
       xml:space="preserve"
       style="font-style:normal;font-weight:normal;font-size:10.58333397px;line-height:1.25;font-family:sans-serif;letter-spacing:0px;word-spacing:0px;fill:#000000;fill-opacity:1;stroke:none;stroke-width:0.26458335"
       x="-71.093689"
       y="0.20707108"
       id="text884"><tspan
         sodipodi:role="line"
         id="tspan882"
         x="-71.093689"
         y="0.20707108"
         style="stroke-width:0.26458335">t</tspan></text>
    <text
       xml:space="preserve"
       style="font-style:normal;font-weight:normal;font-size:10.58333397px;line-height:1.25;font-family:sans-serif;letter-spacing:0px;word-spacing:0px;fill:#000000;fill-opacity:1;stroke:none;stroke-width:0.26458335"
       x="131.71042"
       y="100.4866"
       id="text893"><tspan
         sodipodi:role="line"
         id="tspan891"
         x="131.71042"
         y="100.4866"
         style="stroke-width:0.26458335">t</tspan></text>
    <flowRoot
       transform="matrix(0.08006556,0,0,0.08006556,52.373703,-30.497296)"
       style="font-style:normal;font-variant:normal;font-weight:normal;font-stretch:normal;font-size:80px;line-height:1.25;font-family:Anton;-inkscape-font-specification:Anton;letter-spacing:0px;word-spacing:0px;fill:#0d0010;fill-opacity:1;stroke:none"
       id="flowRoot919"
       xml:space="preserve"><flowRegion
         style="font-style:normal;font-variant:normal;font-weight:normal;font-stretch:normal;font-size:80px;font-family:Anton;-inkscape-font-specification:Anton;fill:#0d0010;fill-opacity:1"
         id="flowRegion915"><rect
           style="font-style:normal;font-variant:normal;font-weight:normal;font-stretch:normal;font-size:80px;font-family:Anton;-inkscape-font-specification:Anton;fill:#0d0010;fill-opacity:1"
           y="109.8638"
           x="72.124893"
           height="123.03658"
           width="360.62448"
           id="rect913" /></flowRegion><flowPara
         style="font-style:normal;font-variant:normal;font-weight:normal;font-stretch:normal;font-size:71.22099304px;font-family:'Kaushan Script';-inkscape-font-specification:'Kaushan Script';fill:#0d0010;fill-opacity:1"
         id="flowPara917">y</flowPara></flowRoot>  </g>
</svg>
