<?xml version="1.0" encoding="UTF-8" standalone="no"?>
<!-- Created with Inkscape (http://www.inkscape.org/) -->

<svg
   xmlns:dc="http://purl.org/dc/elements/1.1/"
   xmlns:cc="http://creativecommons.org/ns#"
   xmlns:rdf="http://www.w3.org/1999/02/22-rdf-syntax-ns#"
   xmlns:svg="http://www.w3.org/2000/svg"
   xmlns="http://www.w3.org/2000/svg"
   xmlns:sodipodi="http://sodipodi.sourceforge.net/DTD/sodipodi-0.dtd"
   xmlns:inkscape="http://www.inkscape.org/namespaces/inkscape"
   width="500"
   height="500"
   viewBox="0 0 132.29166 132.29167"
   version="1.1"
   id="svg821"
   inkscape:version="0.92.5 (2060ec1f9f, 2020-04-08)"
   sodipodi:docname="ideal_y_relevante_logo.svg"
   inkscape:export-filename="/home/eduardo/iglesiasana/inicio/ideal_y_relevante_logo.svg.2021_11_30_13_03_13.0.png"
   inkscape:export-xdpi="96"
   inkscape:export-ydpi="96">
  <defs
     id="defs815" />
  <sodipodi:namedview
     id="base"
     pagecolor="#ffffff"
     bordercolor="#666666"
     borderopacity="1.0"
     inkscape:pageopacity="0"
     inkscape:pageshadow="2"
     inkscape:zoom="0.7071068"
     inkscape:cx="289.32161"
     inkscape:cy="237.37453"
     inkscape:document-units="px"
     inkscape:current-layer="layer1"
     showgrid="false"
     units="px"
     inkscape:window-width="1366"
     inkscape:window-height="704"
     inkscape:window-x="0"
     inkscape:window-y="27"
     inkscape:window-maximized="1"
     inkscape:pagecheckerboard="true"
     inkscape:snap-global="true"
     inkscape:snap-bbox="true"
     showguides="true"
     inkscape:guide-bbox="true"
     inkscape:showpageshadow="false"
     inkscape:snap-bbox-midpoints="true"
     inkscape:snap-bbox-edge-midpoints="true"
     inkscape:bbox-nodes="true">
    <sodipodi:guide
       position="0.13229192,132.15938"
       orientation="0,1"
       id="guide823"
       inkscape:locked="false" />
    <sodipodi:guide
       position="0.13229192,0.13228695"
       orientation="1,0"
       id="guide825"
       inkscape:locked="false" />
    <sodipodi:guide
       position="132.15937,0.13228695"
       orientation="0,1"
       id="guide827"
       inkscape:locked="false" />
    <sodipodi:guide
       position="132.15937,132.15938"
       orientation="1,0"
       id="guide829"
       inkscape:locked="false" />
  </sodipodi:namedview>
  <metadata
     id="metadata818">
    <rdf:RDF>
      <cc:Work
         rdf:about="">
        <dc:format>image/svg+xml</dc:format>
        <dc:type
           rdf:resource="http://purl.org/dc/dcmitype/StillImage" />
        <dc:title></dc:title>
      </cc:Work>
    </rdf:RDF>
  </metadata>
  <g
     inkscape:label="Layer 1"
     inkscape:groupmode="layer"
     id="layer1"
     transform="translate(0,-164.70831)"
     style="display:none"
     sodipodi:insensitive="true">
    <path
       style="fill:#045657;fill-opacity:1;stroke:none;stroke-width:0.33418652px;stroke-linecap:butt;stroke-linejoin:miter;stroke-opacity:1"
       d="m 33.52871,270.76302 c -3.441336,-13.40254 2.621315,-18.12144 7.597026,-22.93196 6.824174,-6.59764 11.688261,-11.52445 13.231791,-16.15981 5.765243,-19.31853 17.202846,-29.50829 32.969237,-33.83102 2.699179,-0.78066 5.178281,-0.7274 5.644133,-0.7196 2.726388,-0.3215 2.002901,-3.46789 1.386754,-5.10922 -3.44899,-9.0349 -26.412461,-25.8551 -40.330983,-5.26006 -12.128546,17.94645 -8.643062,39.1084 -15.948187,50.43825 -4.095595,6.35208 -9.693432,14.32521 -8.765784,20.51959 0.92764,6.19437 4.216016,13.05383 4.216016,13.05383 z"
       id="path1379"
       inkscape:connector-curvature="0"
       sodipodi:nodetypes="csccccssscc" />
    <path
       style="display:inline;fill:#045657;fill-opacity:1;stroke:none;stroke-width:0.33418652px;stroke-linecap:butt;stroke-linejoin:miter;stroke-opacity:1"
       d="m 90.36814,198.93896 c 1.141893,-0.21061 1.918647,-0.0572 1.499039,1.02937 -0.36546,0.94638 -1.40426,2.41243 -2.197408,3.17515 -0.793153,0.76272 -3.791563,2.63133 -4.431469,3.04914 -0.639911,0.41781 -1.043342,1.88632 -1.11796,2.65852 -0.07461,0.77219 0.06306,3.29492 -0.0058,4.00771 -0.06888,0.7128 -0.256543,1.41411 -1.883295,1.49674 -4.379507,0.21087 -5.460553,8.10129 -10.301472,9.19681 -3.367034,-0.35756 -3.180039,-2.1034 -5.557137,-3.29486 -0.921688,-0.38883 -1.684222,0.18404 -2.019471,0.83002 -2.225914,4.28906 -4.5886,9.55523 -5.32672,13.8338 -0.11614,0.67321 -0.380907,0.66171 -0.698052,0.64783 -0.735413,-0.0322 -0.966746,0.0398 -1.805233,-0.0949 -0.442709,-0.0711 -1.485624,-0.25184 -1.216888,-1.179 3.617836,-15.11859 14.574171,-31.2743 35.061876,-35.35637 z"
       id="path1415"
       inkscape:connector-curvature="0"
       sodipodi:nodetypes="cssssscccssssccc" />
    <path
       style="display:inline;fill:#045657;fill-opacity:1;stroke:none;stroke-width:0.33418652px;stroke-linecap:butt;stroke-linejoin:miter;stroke-opacity:1"
       d="m 50.525055,248.82969 c -0.759176,-0.52828 -2.52831,-1.43493 -3.488678,-2.44658 -0.299622,-0.31562 -0.522442,-0.89974 -0.296238,-1.27152 0.693127,-1.13921 1.754221,-2.17686 2.45661,-2.92547 4.324137,-4.60869 3.728017,-4.9424 6.51164,-5.42549 2.286365,-0.39679 3.435357,0.75632 6.537193,2.39359 5.504105,2.90526 17.795182,11.50557 19.224614,12.23948 0.734866,0.3773 2.224753,1.17424 3.29941,-0.64045 1.074665,-1.81471 11.114731,-18.62873 11.581653,-22.14469 0.466915,-3.51598 -0.197225,-6.9476 1.657205,-9.49793 1.45277,-1.99789 1.47046,-1.80876 2.697766,-4.22888 2.03171,-4.00628 2.29613,-6.93618 2.58553,-8.14375 0,0 0.29874,-1.23019 1.40437,-0.88354 1.10562,0.34666 1.15181,1.73006 1.06945,1.96194 -0.0823,0.23186 -0.47465,3.67128 -0.79263,4.47993 -0.31794,0.80864 -0.32541,2.1269 -0.3541,2.4239 -0.0287,0.29699 3.77204,-4.91149 4.3104,-5.51897 0.53832,-0.60747 1.45374,-3.87646 1.45374,-3.87646 0,0 1.23976,-5.60374 1.76092,-6.03301 0.73804,-1.96166 1.90625,-0.71603 1.59517,0.18749 -0.32943,0.92744 -1.22892,8.02956 -1.4645,8.60634 -0.23562,0.57677 -0.1475,0.2855 -1.37714,3.70397 -1.22963,3.41849 -6.7387,12.35891 -7.00411,13.35073 -0.26541,0.9918 -1.18377,2.59883 -1.84202,4.14619 -0.65825,1.54737 -7.244514,24.15731 -8.631119,28.57985 -1.386607,4.42253 -1.567373,4.52723 -2.345039,6.3706 -1.340844,3.54953 -4.531432,3.09141 -6.532034,2.27596 C 58.223088,254.92655 57.32554,253.33823 50.525055,248.82969 Z"
       id="path1417"
       inkscape:connector-curvature="0"
       sodipodi:nodetypes="csssasssssssssssscccsssssccc" />
    <path
       style="display:inline;fill:#045657;fill-opacity:1;stroke:none;stroke-width:0.33418652px;stroke-linecap:butt;stroke-linejoin:miter;stroke-opacity:1"
       d="m 43.188999,278.13725 c 0.43927,-3.50906 -1.676301,-14.99907 -3.134655,-18.57756 -0.729178,-1.78924 -1.275235,-3.61488 -1.452695,-5.37014 -0.177459,-1.75527 1.35783,-3.16126 2.575582,-4.32139 2.218146,-2.11319 2.685925,-3.08569 4.169531,-2.54953 1.483606,0.53615 4.060469,2.45843 5.587282,3.509 7.682201,5.28596 10.211897,6.61552 24.014628,13.01481 10.240662,6.17064 2.015705,14.51598 -2.758942,20.40379 -8.357047,5.26833 -29.439991,-2.5999 -29.000729,-6.10898 z"
       id="path1419"
       inkscape:connector-curvature="0"
       sodipodi:nodetypes="zssscscczz" />
    <path
       style="display:inline;fill:#045657;fill-opacity:1;stroke:none;stroke-width:0.31854343px;stroke-linecap:butt;stroke-linejoin:miter;stroke-opacity:1"
       d="m 74.062162,243.87178 c 3.255498,-5.35266 8.981522,-10.826 9.426587,-14.17738 0.445061,-3.3514 -0.268498,-6.05173 1.153487,-8.70736 1.111497,-2.07577 1.2865,-2.63872 2.666895,-5.10449 2.091552,-3.73611 2.519379,-5.88386 2.795232,-7.03492 0,0 0.284754,-1.17261 1.338625,-0.84217 1.053882,0.33042 1.09791,1.64907 1.019397,1.87009 -0.624433,6.08542 -4.213006,4.27832 -0.866523,1.67344 0.513128,-0.57904 1.594514,-2.7624 1.594514,-2.7624 0,0 3.07785,-5.45301 3.425712,-6.42087 0.491547,-0.92724 1.292203,-0.17172 1.292203,-0.17172 0.03648,-0.38007 1.019687,-0.0182 0.968401,0.78483 0.166749,-0.30435 0.669212,0.0726 0.660721,0.86598 0,0 0.579417,-0.092 0.521827,1.23125 -0.0164,1.14861 -0.633141,5.7049 -0.857711,6.25467 -0.22457,0.54978 -0.625346,1.79823 -1.119898,3.19186 -1.158087,3.26345 -4.901899,8.80379 -6.345513,11.00595 -0.536535,0.81846 -2.1867,3.33708 -2.81413,4.81201 -0.627435,1.47494 -1.881722,10.50973 -4.976699,19.13925 -0.208381,0.58102 -1.374437,0.89427 -1.905511,0.57969 -2.711066,-1.60589 -4.661894,-2.77218 -7.954626,-5.06729 -0.254082,-0.17711 -0.300112,-0.66484 -0.02299,-1.12048 z"
       id="path9680"
       inkscape:connector-curvature="0"
       sodipodi:nodetypes="csssssccccccccssssssssc" />
  </g>
  <g
     inkscape:groupmode="layer"
     id="layer3"
     inkscape:label="Imagen unida"
     style="display:inline;opacity:0.98999999">
    <path
       style="display:inline;fill:#ffffff;fill-opacity:1;stroke:none;stroke-width:0.40451592px;stroke-linecap:butt;stroke-linejoin:miter;stroke-opacity:1"
       d="M 64.845589,0.13417651 C 57.87096,0.22286615 50.785563,3.4408123 44.994176,12.010244 30.313186,33.733515 34.531953,59.349005 25.689468,73.063217 c -4.957512,7.688871 -11.732893,17.34005 -10.610022,24.838034 1.12286,7.497969 5.102971,15.800569 5.102971,15.800569 -4.165566,-16.223104 3.172878,-21.935062 9.195727,-27.757956 8.260317,-7.986109 14.148,-13.949675 16.016364,-19.560544 6.978537,-23.384107 20.823572,-35.718284 39.907993,-40.950728 3.26722,-0.944951 6.268008,-0.880161 6.831898,-0.87072 3.300155,-0.389161 2.424078,-4.197742 1.67826,-6.184489 -2.73973,-7.17694 -15.65187,-18.41251811 -28.96707,-18.24320649 z M 116.44513,25.929876 c -0.35958,0.02512 -0.76778,0.369358 -1.1028,1.259791 -0.63083,0.51961 -2.13175,7.302913 -2.13175,7.302913 0,0 -1.10797,3.956692 -1.75959,4.692004 -0.65164,0.735325 -5.25218,7.040016 -5.21744,6.680522 0.0347,-0.359504 0.0437,-1.955482 0.42849,-2.934298 0.3849,-0.978831 0.85992,-5.141953 0.95954,-5.42261 0.0997,-0.280678 0.0435,-1.954849 -1.29483,-2.374463 -1.3383,-0.419601 -1.69953,1.069008 -1.69953,1.069008 -0.3503,1.461705 -0.6708,5.008752 -3.13009,9.858151 -1.48558,2.929433 -1.506685,2.700261 -3.265191,5.118606 -2.244694,3.087048 -1.440855,7.241089 -2.006033,11.497004 -0.565187,4.255894 -12.718261,24.608047 -14.01909,26.804659 -1.300817,2.196595 -3.104407,1.23172 -3.993927,0.775019 -1.730255,-0.888363 -16.607421,-11.29808 -23.26986,-14.81475 -3.754619,-1.981831 -5.14589,-3.377688 -7.913419,-2.897394 -3.369435,0.584756 -2.647367,0.988718 -7.881514,6.567305 -0.850208,0.906153 -2.134715,2.162094 -2.973711,3.541052 -0.273807,0.45002 -0.0042,1.156729 0.358422,1.538774 1.162478,1.224551 3.303922,2.322363 4.222867,2.961821 8.231644,5.457358 9.318096,7.379854 41.177164,21.40458 2.421628,0.98705 6.283515,1.54174 7.906537,-2.75479 0.941325,-2.2313 1.160178,-2.35812 2.838597,-7.711372 1.678418,-5.35326 9.650608,-32.721835 10.447388,-34.59485 0.79678,-1.873001 1.9087,-3.818001 2.22997,-5.018522 0.32127,-1.200548 6.98986,-12.022326 8.47826,-16.160237 1.48842,-4.137885 1.3818,-3.785555 1.66701,-4.483707 0.28516,-0.698161 1.37396,-9.294743 1.77272,-10.417361 0.23533,-0.683541 -0.22891,-1.52871 -0.82819,-1.486855 z m -26.523185,0.734983 c -0.274582,-0.0021 -0.592726,0.03384 -0.938276,0.09759 -24.799334,4.941141 -38.061504,24.496965 -42.440711,42.797256 -0.325294,1.122281 0.937216,1.341368 1.473093,1.427429 1.014944,0.163048 1.29475,0.0755 2.184929,0.114472 0.383888,0.0168 0.704493,0.03111 0.845077,-0.783771 0.893454,-5.178995 3.753473,-11.553404 6.447829,-16.745095 0.405801,-0.781926 1.328865,-1.475863 2.44452,-1.005205 2.877359,1.442201 2.651187,3.555489 6.726812,3.988295 5.859689,-1.326069 7.167885,-10.877078 12.469057,-11.132326 1.969104,-0.100019 2.196636,-0.948689 2.28001,-1.811497 0.08335,-0.862797 -0.08342,-3.916188 0.0069,-4.850887 0.09032,-0.934709 0.578411,-2.712547 1.352993,-3.218283 0.774574,-0.50574 4.404361,-2.767319 5.364435,-3.690553 0.960065,-0.923233 2.217328,-2.698259 2.659697,-3.843804 0.380935,-0.986428 -0.05261,-1.337282 -0.876348,-1.34361 z m 7.381101,3.686798 c -0.257516,0.0036 -0.533129,0.138323 -0.756251,0.559211 -0.421068,1.171548 -4.147178,7.77205 -4.147178,7.77205 0,0 -0.444845,0.894112 -0.937649,1.780224 0.01975,-0.151511 0.04045,-0.301766 0.05692,-0.462257 0.09504,-0.267533 0.04153,-1.86379 -1.234143,-2.263747 -1.27566,-0.399982 -1.620091,1.019592 -1.620091,1.019592 -0.333905,1.393299 -0.852327,3.992793 -3.384046,8.515164 -1.670898,2.984693 -1.882257,3.666245 -3.22767,6.178859 -1.72124,3.214506 -0.857429,6.483264 -1.396152,10.539964 -0.538731,4.056677 -7.470068,10.681939 -11.410685,17.161061 -0.335442,0.551532 -0.279406,1.141739 0.02814,1.356124 3.985686,2.778113 6.346979,4.189972 9.628587,6.133818 0.642836,0.380782 2.054047,0.0015 2.306282,-0.70183 3.746312,-10.445596 5.264877,-21.381936 6.024353,-23.167278 0.759472,-1.785326 2.756492,-4.834108 3.405942,-5.824815 1.747422,-2.665602 6.279543,-9.371396 7.681348,-13.321637 0.598633,-1.686918 1.083667,-3.198337 1.355499,-3.863818 0.271831,-0.665469 1.017878,-6.180925 1.037718,-7.571262 0.0697,-1.601727 -0.63113,-1.489981 -0.63113,-1.489981 0.0103,-0.960345 -0.5982,-1.416767 -0.80004,-1.048366 0.06208,-0.972026 -1.128062,-1.410216 -1.172217,-0.950162 0,0 -0.378352,-0.357005 -0.807544,-0.350914 z M 33.584744,85.148209 c -1.180109,0.01638 -1.962525,1.183144 -4.144049,3.261445 -1.474029,1.404278 -3.332385,3.106533 -3.11758,5.231201 0.214808,2.124652 0.875697,4.334588 1.758331,6.500375 1.765264,4.33158 4.3261,18.23918 3.794388,22.48672 -0.531707,4.24756 24.988235,13.77191 35.104019,7.39486 5.779469,-7.12689 15.73544,-17.22866 3.339635,-24.69792 C 53.61198,97.57887 50.549374,95.969628 41.250458,89.571238 39.402328,88.299578 36.283195,85.972961 34.487365,85.32398 34.150648,85.202292 33.857078,85.14443 33.584744,85.148209 Z"
       id="path1508"
       inkscape:export-xdpi="96"
       inkscape:export-ydpi="96"
       inkscape:connector-curvature="0" />
  </g>
</svg>
