<?xml version="1.0" encoding="UTF-8" standalone="no"?>
<!-- Created with Inkscape (http://www.inkscape.org/) -->

<svg
   xmlns:dc="http://purl.org/dc/elements/1.1/"
   xmlns:cc="http://creativecommons.org/ns#"
   xmlns:rdf="http://www.w3.org/1999/02/22-rdf-syntax-ns#"
   xmlns:svg="http://www.w3.org/2000/svg"
   xmlns="http://www.w3.org/2000/svg"
   xmlns:xlink="http://www.w3.org/1999/xlink"
   xmlns:sodipodi="http://sodipodi.sourceforge.net/DTD/sodipodi-0.dtd"
   xmlns:inkscape="http://www.inkscape.org/namespaces/inkscape"
   width="5369.7148"
   height="933.1322"
   viewBox="0 0 5369.7147 933.13221"
   version="1.1"
   id="svg989"
   inkscape:version="0.92.5 (2060ec1f9f, 2020-04-08)"
   sodipodi:docname="logo_iglesiasana_horizontal.svg"
   inkscape:export-filename="/home/eduardo/iglesiasana/inicio/logo_iglesiasana.png"
   inkscape:export-xdpi="96"
   inkscape:export-ydpi="96">
  <defs
     id="defs983">
    <linearGradient
       inkscape:collect="always"
       id="linearGradient1019-6-7">
      <stop
         style="stop-color:#00ffff;stop-opacity:1"
         offset="0"
         id="stop1570" />
      <stop
         style="stop-color:#00aaaa;stop-opacity:1"
         offset="1"
         id="stop1572" />
    </linearGradient>
    <filter
       style="color-interpolation-filters:sRGB"
       inkscape:label="Feather"
       id="filter10753"
       x="-0.0096005853"
       y="-0.010162292"
       width="1.0192012"
       height="1.0203246">
      <feGaussianBlur
         stdDeviation="5"
         result="blur"
         id="feGaussianBlur10745" />
      <feComposite
         in="SourceGraphic"
         in2="blur"
         operator="atop"
         result="composite1"
         id="feComposite10747" />
      <feComposite
         in2="composite1"
         operator="in"
         result="composite2"
         id="feComposite10749" />
      <feComposite
         in2="composite2"
         operator="in"
         result="composite3"
         id="feComposite10751" />
    </filter>
    <filter
       style="color-interpolation-filters:sRGB"
       inkscape:label="Blur"
       id="filter14693"
       x="-0.0096005853"
       y="-0.010162292"
       width="1.0192012"
       height="1.0203246">
      <feGaussianBlur
         stdDeviation="5 5"
         result="blur"
         id="feGaussianBlur14691" />
    </filter>
    <linearGradient
       inkscape:collect="always"
       xlink:href="#linearGradient1019-6-7"
       id="linearGradient3020"
       x1="1388.9619"
       y1="-202.87631"
       x2="116.83427"
       y2="984.16345"
       gradientUnits="userSpaceOnUse"
       spreadMethod="repeat"
       gradientTransform="translate(-45.385561,503.60119)" />
    <filter
       inkscape:collect="always"
       style="color-interpolation-filters:sRGB"
       id="filter876"
       x="-0.0023336716"
       width="1.0046673"
       y="-0.002470209"
       height="1.0049404">
      <feGaussianBlur
         inkscape:collect="always"
         stdDeviation="1.2153799"
         id="feGaussianBlur878" />
    </filter>
    <filter
       height="1.0203246"
       width="1.0192012"
       y="-0.010162292"
       x="-0.0096005853"
       id="filter10753-9"
       inkscape:label="Feather"
       style="color-interpolation-filters:sRGB">
      <feGaussianBlur
         id="feGaussianBlur10745-0"
         result="blur"
         stdDeviation="5" />
      <feComposite
         id="feComposite10747-8"
         result="composite1"
         operator="atop"
         in2="blur"
         in="SourceGraphic" />
      <feComposite
         id="feComposite10749-8"
         result="composite2"
         operator="in"
         in2="composite1" />
      <feComposite
         id="feComposite10751-5"
         result="composite3"
         operator="in"
         in2="composite2" />
    </filter>
    <filter
       height="1.0203246"
       width="1.0192012"
       y="-0.010162292"
       x="-0.0096005853"
       id="filter14693-0"
       inkscape:label="Blur"
       style="color-interpolation-filters:sRGB">
      <feGaussianBlur
         id="feGaussianBlur14691-9"
         result="blur"
         stdDeviation="5 5" />
    </filter>
    <filter
       height="1.0049404"
       y="-0.002470209"
       width="1.0046673"
       x="-0.0023336716"
       id="filter876-3"
       style="color-interpolation-filters:sRGB"
       inkscape:collect="always">
      <feGaussianBlur
         id="feGaussianBlur878-8"
         stdDeviation="1.2153799"
         inkscape:collect="always" />
    </filter>
  </defs>
  <sodipodi:namedview
     id="base"
     pagecolor="#ffffff"
     bordercolor="#0000c3"
     borderopacity="1"
     inkscape:pageopacity="0"
     inkscape:pageshadow="2"
     inkscape:zoom="0.14280216"
     inkscape:cx="1205.1198"
     inkscape:cy="405.98849"
     inkscape:document-units="px"
     inkscape:current-layer="layer2"
     showgrid="false"
     inkscape:showpageshadow="false"
     units="px"
     inkscape:snap-bbox="true"
     inkscape:bbox-nodes="true"
     showguides="false"
     inkscape:guide-bbox="true"
     inkscape:snap-intersection-paths="true"
     inkscape:snap-bbox-midpoints="true"
     inkscape:snap-bbox-edge-midpoints="true"
     inkscape:window-width="1366"
     inkscape:window-height="704"
     inkscape:window-x="0"
     inkscape:window-y="27"
     inkscape:window-maximized="1"
     inkscape:snap-global="false"
     showborder="false"
     inkscape:pagecheckerboard="false"
     width="1500px"
     fit-margin-top="0"
     fit-margin-left="0"
     fit-margin-right="0"
     fit-margin-bottom="0">
    <sodipodi:guide
       position="501.88554,26.925116"
       orientation="0,1"
       id="guide1544"
       inkscape:locked="false" />
    <sodipodi:guide
       position="45.38556,2436.7334"
       orientation="0,1"
       id="guide1552"
       inkscape:locked="false" />
    <sodipodi:guide
       position="45.38556,2436.7334"
       orientation="1,0"
       id="guide1554"
       inkscape:locked="false" />
    <sodipodi:guide
       position="2545.3855,2436.7334"
       orientation="1,0"
       id="guide1556"
       inkscape:locked="false" />
    <sodipodi:guide
       position="795.38555,2056.593"
       orientation="1,0"
       id="guide1701"
       inkscape:locked="false" />
    <sodipodi:guide
       position="1795.3855,2056.593"
       orientation="1,0"
       id="guide1703"
       inkscape:locked="false" />
    <sodipodi:guide
       position="1770.3855,2062.3073"
       orientation="1,0"
       id="guide1707"
       inkscape:locked="false" />
    <sodipodi:guide
       position="1695.3856,687.23428"
       orientation="1,0"
       id="guide1715"
       inkscape:locked="false" />
    <sodipodi:guide
       position="-503.15354,654.73388"
       orientation="1,0"
       id="guide2008"
       inkscape:locked="false" />
    <sodipodi:guide
       position="961.79462,247.42547"
       orientation="0,-1"
       id="guide13959"
       inkscape:locked="false" />
  </sodipodi:namedview>
  <metadata
     id="metadata986">
    <rdf:RDF>
      <cc:Work
         rdf:about="">
        <dc:format>image/svg+xml</dc:format>
        <dc:type
           rdf:resource="http://purl.org/dc/dcmitype/StillImage" />
        <dc:title></dc:title>
      </cc:Work>
    </rdf:RDF>
  </metadata>
  <g
     inkscape:label="Layer 1"
     inkscape:groupmode="layer"
     id="layer1"
     transform="translate(45.385561,-139.14285)"
     style="display:none">
    <path
       style="opacity:1;fill:url(#linearGradient3020);fill-opacity:1;stroke:none;stroke-width:15.26099968;stroke-linecap:round;stroke-linejoin:miter;stroke-miterlimit:4;stroke-dasharray:none;stroke-opacity:1;filter:url(#filter876)"
       d="m 749.99902,-204.87631 c 0,0 -25.6645,2e-5 -44.3398,22.14258 v 0.002 l -29.7364,35.19136 -325.92185,386 -25.73633,30.4805 c -25.73919,30.4812 -49.26562,58.3443 -49.26562,107.0195 v 443.9414 81.0586 c 0,41.42136 33.57864,75 75,75 h 358.5 v -0.025 H 1054.749 v 0.025 h 95.25 c 41.4214,0 75,-33.57864 75,-75 v -81.0586 -443.9414 c 0,-48.6752 -23.5265,-76.5382 -49.2637,-107.0195 l -25.7363,-30.4805 -325.92188,-386 -29.7129,-35.19141 c -18.698,-22.1447 -44.3652,-22.14453 -44.3652,-22.14453 z m -175,75 c 0,0 -20.5569,4.1e-4 -35.5156,17.73633 v 0.002 l -23.8184,28.1875 -261.05858,309.18171 -20.61523,24.414 c -20.6152,24.4151 -39.45899,46.7326 -39.45899,85.7207 v 355.5918 64.9277 c 0.008,31.39244 24.18557,57.48552 55.48633,59.8829 -0.1321,-122.5999 0.0775,-245.208 -0.0195,-367.8087 0.4732,-29.1584 -0.95321,-58.381 0.71289,-87.502 2.6608,-34.52 19.6939,-66.1 41.625,-92.2246 106.3044,-126.40612 213.07561,-252.50115 319.58981,-378.72067 l -1.3925,-1.65039 c -14.9769,-17.73764 -35.5352,-17.73828 -35.5352,-17.73828 z m 350.002,0 c 0,0 -20.5603,6.4e-4 -35.5372,17.73828 l -1.3808,1.63672 c 71.7893,84.92048 143.40868,169.99082 215.21288,254.89844 36.412,43.5744 73.7216,86.4127 109.5801,130.4414 21.3058,26.5046 35.9837,59.1199 36.9531,93.459 0.3639,149.1393 0.1223,298.2876 0.164,447.4316 31.2811,-2.40198 55.4465,-28.47048 55.4747,-59.8437 v -64.9278 -355.5918 c 0,-38.988 -18.8438,-61.3055 -39.459,-85.7207 l -20.6153,-24.414 -261.05858,-309.18166 -23.8203,-28.1875 v -0.002 c -14.9587,-17.73592 -35.5136,-17.73633 -35.5136,-17.73633 z m -510.00395,70 c 0,0 -15.66616,7.8e-4 -27.06641,13.51758 v 0.002 l -18.15234,21.48243 -198.95703,235.63093 -15.71094,18.6074 c -15.71107,18.6071 -30.07227,35.6146 -30.07227,65.3281 v 271.002 49.4824 c 0.0147,24.77735 19.73815,45.04694 44.50586,45.7383 -0.0831,-110.0397 -0.004,-220.0848 0.0625,-330.1231 0.38107,-30.7028 14.00624,-59.7461 33.45703,-82.9902 80.94686,-96.43188 162.37684,-192.53219 243.58985,-288.74029 l -4.57422,-5.41797 c -11.41412,-13.51812 -27.08203,-13.51953 -27.08203,-13.51953 z m 670.00393,0 c 0,0 -15.668,10e-4 -27.0821,13.51953 l -4.5664,5.40821 c 80.9969,95.86247 162.0347,191.73681 242.8086,287.7852 19.3192,22.9377 33.2797,51.4161 34.1484,81.8125 0.3198,110.7442 0.1393,221.4968 0.1485,332.246 24.7593,-0.69218 44.4786,-20.9497 44.5039,-45.7187 v -49.4824 -271.002 c 0,-29.7135 -14.3632,-46.721 -30.0742,-65.3281 l -15.709,-18.6074 -198.959,-235.63088 -18.1523,-21.48243 v -0.002 c -11.4003,-13.5168 -27.0664,-13.51758 -27.0664,-13.51758 z M 737.49902,275.45963 h 25 v 200.5 h 195.5 v 25 h -195.5 v 216.5 h -25 v -216.5 h -197.5 v -25 h 197.5 z"
       id="path2018"
       inkscape:export-filename="/home/eduardo/iglesiasana/inicio/logo_iglesiasana_acuamarina-azul.png"
       inkscape:export-xdpi="96"
       inkscape:export-ydpi="96"
       inkscape:connector-curvature="0"
       sodipodi:nodetypes="ccccccscssccccsscscccccccccccscccccccccccccccccccscccccccccccccscccccccccccccccccscccccccccccccccccccc" />
    <rect
       style="opacity:0.98999999;fill:#20989f;fill-opacity:1;stroke:none;stroke-width:25;stroke-linecap:round;stroke-linejoin:miter;stroke-miterlimit:4;stroke-dasharray:none;stroke-opacity:1"
       id="rect1992"
       height="100"
       x="994"
       y="260.04086"
       width="0" />
  </g>
  <g
     inkscape:groupmode="layer"
     id="layer2"
     inkscape:label="Layer 2"
     style="display:inline"
     transform="translate(45.385561,-503.60119)">
    <g
       id="g1573"
       transform="matrix(1.3995757,0,0,1.3995757,1003.9347,833.12648)"
       style="fill:#007aff;fill-opacity:1">
      <g
         style="display:none;fill:#007aff;fill-opacity:1"
         transform="translate(-1001.5544,-546.85971)"
         id="layer1-8"
         inkscape:label="Layer 1">
        <path
           sodipodi:nodetypes="ccccccscssccccsscscccccccccccscccccccccccccccccccscccccccccccccscccccccccccccccccscccccccccccccccccccc"
           inkscape:connector-curvature="0"
           inkscape:export-ydpi="96"
           inkscape:export-xdpi="96"
           inkscape:export-filename="/home/eduardo/iglesiasana/inicio/logo_iglesiasana_acuamarina-azul.png"
           id="path2018-1"
           d="m 749.99902,-204.87631 c 0,0 -25.6645,2e-5 -44.3398,22.14258 v 0.002 l -29.7364,35.19136 -325.92185,386 -25.73633,30.4805 c -25.73919,30.4812 -49.26562,58.3443 -49.26562,107.0195 v 443.9414 81.0586 c 0,41.42136 33.57864,75 75,75 h 358.5 v -0.025 H 1054.749 v 0.025 h 95.25 c 41.4214,0 75,-33.57864 75,-75 v -81.0586 -443.9414 c 0,-48.6752 -23.5265,-76.5382 -49.2637,-107.0195 l -25.7363,-30.4805 -325.92188,-386 -29.7129,-35.19141 c -18.698,-22.1447 -44.3652,-22.14453 -44.3652,-22.14453 z m -175,75 c 0,0 -20.5569,4.1e-4 -35.5156,17.73633 v 0.002 l -23.8184,28.1875 -261.05858,309.18171 -20.61523,24.414 c -20.6152,24.4151 -39.45899,46.7326 -39.45899,85.7207 v 355.5918 64.9277 c 0.008,31.39244 24.18557,57.48552 55.48633,59.8829 -0.1321,-122.5999 0.0775,-245.208 -0.0195,-367.8087 0.4732,-29.1584 -0.95321,-58.381 0.71289,-87.502 2.6608,-34.52 19.6939,-66.1 41.625,-92.2246 106.3044,-126.40612 213.07561,-252.50115 319.58981,-378.72067 l -1.3925,-1.65039 c -14.9769,-17.73764 -35.5352,-17.73828 -35.5352,-17.73828 z m 350.002,0 c 0,0 -20.5603,6.4e-4 -35.5372,17.73828 l -1.3808,1.63672 c 71.7893,84.92048 143.40868,169.99082 215.21288,254.89844 36.412,43.5744 73.7216,86.4127 109.5801,130.4414 21.3058,26.5046 35.9837,59.1199 36.9531,93.459 0.3639,149.1393 0.1223,298.2876 0.164,447.4316 31.2811,-2.40198 55.4465,-28.47048 55.4747,-59.8437 v -64.9278 -355.5918 c 0,-38.988 -18.8438,-61.3055 -39.459,-85.7207 l -20.6153,-24.414 -261.05858,-309.18166 -23.8203,-28.1875 v -0.002 c -14.9587,-17.73592 -35.5136,-17.73633 -35.5136,-17.73633 z m -510.00395,70 c 0,0 -15.66616,7.8e-4 -27.06641,13.51758 v 0.002 l -18.15234,21.48243 -198.95703,235.63093 -15.71094,18.6074 c -15.71107,18.6071 -30.07227,35.6146 -30.07227,65.3281 v 271.002 49.4824 c 0.0147,24.77735 19.73815,45.04694 44.50586,45.7383 -0.0831,-110.0397 -0.004,-220.0848 0.0625,-330.1231 0.38107,-30.7028 14.00624,-59.7461 33.45703,-82.9902 80.94686,-96.43188 162.37684,-192.53219 243.58985,-288.74029 l -4.57422,-5.41797 c -11.41412,-13.51812 -27.08203,-13.51953 -27.08203,-13.51953 z m 670.00393,0 c 0,0 -15.668,10e-4 -27.0821,13.51953 l -4.5664,5.40821 c 80.9969,95.86247 162.0347,191.73681 242.8086,287.7852 19.3192,22.9377 33.2797,51.4161 34.1484,81.8125 0.3198,110.7442 0.1393,221.4968 0.1485,332.246 24.7593,-0.69218 44.4786,-20.9497 44.5039,-45.7187 v -49.4824 -271.002 c 0,-29.7135 -14.3632,-46.721 -30.0742,-65.3281 l -15.709,-18.6074 -198.959,-235.63088 -18.1523,-21.48243 v -0.002 c -11.4003,-13.5168 -27.0664,-13.51758 -27.0664,-13.51758 z M 737.49902,275.45963 h 25 v 200.5 h 195.5 v 25 h -195.5 v 216.5 h -25 v -216.5 h -197.5 v -25 h 197.5 z"
           style="opacity:1;fill:#007aff;fill-opacity:1;stroke:none;stroke-width:15.26099968;stroke-linecap:round;stroke-linejoin:miter;stroke-miterlimit:4;stroke-dasharray:none;stroke-opacity:1;filter:url(#filter876-3)" />
        <rect
           width="0"
           y="260.04086"
           x="994"
           height="100"
           id="rect1992-0"
           style="opacity:0.98999999;fill:#007aff;fill-opacity:1;stroke:none;stroke-width:25;stroke-linecap:round;stroke-linejoin:miter;stroke-miterlimit:4;stroke-dasharray:none;stroke-opacity:1" />
      </g>
      <g
         transform="translate(-1001.5544,-911.31805)"
         style="display:inline;fill:#007aff;fill-opacity:1"
         inkscape:label="Layer 2"
         id="layer2-3">
        <g
           id="flowRoot1017-0"
           style="font-style:normal;font-variant:normal;font-weight:bold;font-stretch:normal;font-size:37.48519897px;line-height:1.25;font-family:Nunito;-inkscape-font-specification:'Nunito Bold';letter-spacing:0px;word-spacing:0px;fill:#007aff;fill-opacity:1;stroke:none"
           transform="matrix(9.1220546,0,0,9.1220546,-3351.148,-15781.521)"
           aria-label="iglesiasana">
          <path
             inkscape:connector-curvature="0"
             id="path967-4"
             style="font-style:normal;font-variant:normal;font-weight:bold;font-stretch:normal;font-size:37.48519897px;font-family:Nunito;-inkscape-font-specification:'Nunito Bold';letter-spacing:0px;fill:#007aff;fill-opacity:1"
             d="m 479.9364,1834.891 q -1.31198,0 -2.06168,-0.6373 -0.71222,-0.6747 -0.71222,-1.8367 0,-1.1996 0.71222,-1.8368 0.7497,-0.6373 2.06168,-0.6373 2.77391,0 2.77391,2.4741 0,2.474 -2.77391,2.474 z m 0,22.3412 q -1.12455,0 -1.72432,-0.6748 -0.59976,-0.6747 -0.59976,-1.8742 v -13.7571 q 0,-2.549 2.32408,-2.549 2.36157,0 2.36157,2.549 v 13.7571 q 0,1.1995 -0.59976,1.8742 -0.59977,0.6748 -1.76181,0.6748 z" />
          <path
             inkscape:connector-curvature="0"
             id="path969-4"
             style="font-style:normal;font-variant:normal;font-weight:bold;font-stretch:normal;font-size:37.48519897px;font-family:Nunito;-inkscape-font-specification:'Nunito Bold';letter-spacing:0px;fill:#007aff;fill-opacity:1"
             d="m 495.71764,1864.092 q -2.0242,0 -3.93595,-0.3749 -1.87426,-0.3748 -3.41115,-1.162 -0.89965,-0.4499 -1.08707,-1.1621 -0.14994,-0.6747 0.14994,-1.312 0.29988,-0.6372 0.89964,-0.9371 0.63725,-0.2624 1.34947,0.075 1.64935,0.8247 3.11127,1.0496 1.49941,0.2624 2.549,0.2624 5.02301,0 5.02301,-4.8356 v -2.5115 q -0.78719,1.5369 -2.43653,2.4365 -1.61187,0.8996 -3.59858,0.8996 -2.47403,0 -4.3108,-1.1245 -1.83678,-1.1621 -2.84888,-3.2237 -1.0121,-2.0617 -1.0121,-4.7981 0,-2.7365 1.0121,-4.7607 1.0121,-2.0616 2.84888,-3.1862 1.83677,-1.162 4.3108,-1.162 1.98671,0 3.59858,0.8621 1.61186,0.8622 2.36156,2.3616 v -0.7872 q 0,-1.1621 0.59977,-1.7618 0.63724,-0.5998 1.72432,-0.5998 2.32408,0 2.32408,2.3616 v 14.4318 q 0,4.4607 -2.36157,6.7098 -2.36157,2.2492 -6.85979,2.2492 z m -0.11246,-11.1331 q 2.17414,0 3.44864,-1.4995 1.2745,-1.4994 1.2745,-4.0858 0,-2.5865 -1.2745,-4.0484 -1.2745,-1.4995 -3.44864,-1.4995 -2.17414,0 -3.44864,1.4995 -1.27449,1.4619 -1.27449,4.0484 0,2.5864 1.27449,4.0858 1.2745,1.4995 3.44864,1.4995 z" />
          <path
             inkscape:connector-curvature="0"
             id="path971-4"
             style="font-style:normal;font-variant:normal;font-weight:bold;font-stretch:normal;font-size:37.48519897px;font-family:Nunito;-inkscape-font-specification:'Nunito Bold';letter-spacing:0px;fill:#007aff;fill-opacity:1"
             d="m 516.07203,1857.3446 q -6.26003,0 -6.26003,-7.0097 v -17.7305 q 0,-2.3616 2.32409,-2.3616 2.36156,0 2.36156,2.3616 v 17.5056 q 0,3.3736 2.81139,3.3736 0.29988,0 0.56228,0 0.2624,-0.037 0.52479,-0.075 0.5248,-0.075 0.71222,0.2999 0.18743,0.3373 0.18743,1.4244 0,0.9371 -0.37485,1.4619 -0.37486,0.5248 -1.23701,0.6373 -0.78719,0.1124 -1.61187,0.1124 z" />
          <path
             inkscape:connector-curvature="0"
             id="path973-4"
             style="font-style:normal;font-variant:normal;font-weight:bold;font-stretch:normal;font-size:37.48519897px;font-family:Nunito;-inkscape-font-specification:'Nunito Bold';letter-spacing:0px;fill:#007aff;fill-opacity:1"
             d="m 530.61619,1857.3446 q -3.11127,0 -5.36038,-1.162 -2.24912,-1.1621 -3.48613,-3.2987 -1.19952,-2.1367 -1.19952,-5.0605 0,-2.8489 1.16204,-4.9856 1.19952,-2.1366 3.26121,-3.3361 2.09917,-1.237 4.76062,-1.237 3.89846,0 6.14757,2.474 2.2866,2.474 2.2866,6.7473 0,1.387 -1.79929,1.387 h -11.32053 q 0.52479,4.9105 5.62278,4.9105 0.97461,0 2.17414,-0.2249 1.23701,-0.2624 2.32408,-0.8621 0.97462,-0.5623 1.64935,-0.3374 0.67474,0.1874 0.93713,0.7872 0.29988,0.5997 0.075,1.3494 -0.18742,0.7123 -1.04958,1.2371 -1.31199,0.8246 -3.0363,1.237 -1.68684,0.3748 -3.14876,0.3748 z m -0.67474,-15.8937 q -2.06168,0 -3.33618,1.2745 -1.27449,1.2745 -1.53689,3.4486 h 9.22136 q -0.14994,-2.2866 -1.2745,-3.4861 -1.08707,-1.237 -3.07379,-1.237 z" />
          <path
             inkscape:connector-curvature="0"
             id="path975-7"
             style="font-style:normal;font-variant:normal;font-weight:bold;font-stretch:normal;font-size:37.48519897px;font-family:Nunito;-inkscape-font-specification:'Nunito Bold';letter-spacing:0px;fill:#007aff;fill-opacity:1"
             d="m 548.60907,1857.3446 q -1.61186,0 -3.41115,-0.3373 -1.79929,-0.3374 -3.22373,-1.1621 -0.78719,-0.4498 -0.97461,-1.0871 -0.18743,-0.6747 0.0375,-1.237 0.2624,-0.5997 0.82468,-0.8621 0.59976,-0.2624 1.38695,0.1124 1.49941,0.7122 2.81139,1.0121 1.31198,0.2624 2.58648,0.2624 1.79929,0 2.66145,-0.5997 0.89964,-0.6373 0.89964,-1.6494 0,-1.5744 -2.32408,-2.0242 l -3.74852,-0.7122 q -4.76062,-0.8997 -4.76062,-4.9481 0,-1.7992 0.97461,-3.1112 1.01211,-1.312 2.77391,-2.0242 1.7618,-0.7122 4.0484,-0.7122 3.2987,0 5.88518,1.4619 0.71222,0.3748 0.82467,1.0496 0.14994,0.6372 -0.14994,1.237 -0.2624,0.5623 -0.86216,0.8246 -0.59976,0.225 -1.38695,-0.1499 -1.16204,-0.5998 -2.24911,-0.8622 -1.04959,-0.2623 -2.0242,-0.2623 -1.83678,0 -2.73642,0.6372 -0.86216,0.6372 -0.86216,1.6868 0,1.6494 2.13665,2.0242 l 3.74852,0.7123 q 2.43654,0.4498 3.67355,1.6493 1.2745,1.1995 1.2745,3.2237 0,2.7364 -2.13666,4.3108 -2.13665,1.5369 -5.69775,1.5369 z" />
          <path
             inkscape:connector-curvature="0"
             id="path977-6"
             style="font-style:normal;font-variant:normal;font-weight:bold;font-stretch:normal;font-size:37.48519897px;font-family:Nunito;-inkscape-font-specification:'Nunito Bold';letter-spacing:0px;fill:#007aff;fill-opacity:1"
             d="m 562.51604,1834.891 q -1.31198,0 -2.06168,-0.6373 -0.71222,-0.6747 -0.71222,-1.8367 0,-1.1996 0.71222,-1.8368 0.7497,-0.6373 2.06168,-0.6373 2.77391,0 2.77391,2.4741 0,2.474 -2.77391,2.474 z m 0,22.3412 q -1.12455,0 -1.72431,-0.6748 -0.59977,-0.6747 -0.59977,-1.8742 v -13.7571 q 0,-2.549 2.32408,-2.549 2.36157,0 2.36157,2.549 v 13.7571 q 0,1.1995 -0.59976,1.8742 -0.59976,0.6748 -1.76181,0.6748 z" />
          <path
             inkscape:connector-curvature="0"
             id="path979-3"
             style="font-style:normal;font-variant:normal;font-weight:bold;font-stretch:normal;font-size:37.48519897px;font-family:Nunito;-inkscape-font-specification:'Nunito Bold';letter-spacing:0px;fill:#007aff;fill-opacity:1"
             d="m 575.78577,1857.3446 q -1.98671,0 -3.56109,-0.7497 -1.53689,-0.7872 -2.43654,-2.0992 -0.86216,-1.3119 -0.86216,-2.9613 0,-2.0242 1.04959,-3.1862 1.04958,-1.1996 3.41115,-1.7243 2.36157,-0.5248 6.335,-0.5248 h 1.31198 v -0.7872 q 0,-1.8743 -0.82467,-2.699 -0.82468,-0.8246 -2.77391,-0.8246 -1.08707,0 -2.36157,0.2624 -1.23701,0.2624 -2.62396,0.8996 -0.89965,0.4123 -1.49941,0.1125 -0.59976,-0.3374 -0.82467,-1.0121 -0.18743,-0.7123 0.075,-1.4245 0.29988,-0.7122 1.16204,-1.0496 1.72432,-0.7122 3.2987,-1.0121 1.61186,-0.2998 2.92384,-0.2998 4.01092,0 5.96015,1.8742 1.94923,1.8368 1.94923,5.7352 v 8.9965 q 0,2.399 -2.17414,2.399 -2.21163,0 -2.21163,-2.399 v -0.8247 q -0.63725,1.5369 -2.0242,2.4366 -1.38695,0.8621 -3.2987,0.8621 z m 0.97462,-3.2237 q 1.83677,0 3.0363,-1.2745 1.23701,-1.2745 1.23701,-3.2237 v -0.8247 h -1.2745 q -3.52361,0 -4.91056,0.5623 -1.34946,0.5248 -1.34946,1.9492 0,1.237 0.86215,2.0242 0.86216,0.7872 2.39906,0.7872 z" />
          <path
             inkscape:connector-curvature="0"
             id="path981-1"
             style="font-style:normal;font-variant:normal;font-weight:bold;font-stretch:normal;font-size:37.48519897px;font-family:Nunito;-inkscape-font-specification:'Nunito Bold';letter-spacing:0px;fill:#007aff;fill-opacity:1"
             d="m 596.96487,1857.3446 q -1.61186,0 -3.41115,-0.3373 -1.79929,-0.3374 -3.22373,-1.1621 -0.78719,-0.4498 -0.97462,-1.0871 -0.18742,-0.6747 0.0375,-1.237 0.2624,-0.5997 0.82467,-0.8621 0.59977,-0.2624 1.38696,0.1124 1.4994,0.7122 2.81139,1.0121 1.31198,0.2624 2.58648,0.2624 1.79928,0 2.66144,-0.5997 0.89965,-0.6373 0.89965,-1.6494 0,-1.5744 -2.32408,-2.0242 l -3.74852,-0.7122 q -4.76062,-0.8997 -4.76062,-4.9481 0,-1.7992 0.97461,-3.1112 1.0121,-1.312 2.77391,-2.0242 1.7618,-0.7122 4.0484,-0.7122 3.2987,0 5.88517,1.4619 0.71222,0.3748 0.82468,1.0496 0.14994,0.6372 -0.14994,1.237 -0.2624,0.5623 -0.86216,0.8246 -0.59976,0.225 -1.38695,-0.1499 -1.16205,-0.5998 -2.24912,-0.8622 -1.04958,-0.2623 -2.0242,-0.2623 -1.83677,0 -2.73642,0.6372 -0.86216,0.6372 -0.86216,1.6868 0,1.6494 2.13666,2.0242 l 3.74852,0.7123 q 2.43654,0.4498 3.67355,1.6493 1.2745,1.1995 1.2745,3.2237 0,2.7364 -2.13666,4.3108 -2.13666,1.5369 -5.69775,1.5369 z" />
          <path
             inkscape:connector-curvature="0"
             id="path983-7"
             style="font-style:normal;font-variant:normal;font-weight:bold;font-stretch:normal;font-size:37.48519897px;font-family:Nunito;-inkscape-font-specification:'Nunito Bold';letter-spacing:0px;fill:#007aff;fill-opacity:1"
             d="m 614.58288,1857.3446 q -1.98672,0 -3.5611,-0.7497 -1.53689,-0.7872 -2.43654,-2.0992 -0.86216,-1.3119 -0.86216,-2.9613 0,-2.0242 1.04959,-3.1862 1.04959,-1.1996 3.41115,-1.7243 2.36157,-0.5248 6.335,-0.5248 h 1.31198 v -0.7872 q 0,-1.8743 -0.82467,-2.699 -0.82467,-0.8246 -2.7739,-0.8246 -1.08708,0 -2.36157,0.2624 -1.23701,0.2624 -2.62397,0.8996 -0.89964,0.4123 -1.4994,0.1125 -0.59977,-0.3374 -0.82468,-1.0121 -0.18742,-0.7123 0.075,-1.4245 0.29988,-0.7122 1.16204,-1.0496 1.72432,-0.7122 3.2987,-1.0121 1.61186,-0.2998 2.92385,-0.2998 4.01091,0 5.96014,1.8742 1.94923,1.8368 1.94923,5.7352 v 8.9965 q 0,2.399 -2.17414,2.399 -2.21163,0 -2.21163,-2.399 v -0.8247 q -0.63724,1.5369 -2.0242,2.4366 -1.38695,0.8621 -3.29869,0.8621 z m 0.97461,-3.2237 q 1.83678,0 3.0363,-1.2745 1.23701,-1.2745 1.23701,-3.2237 v -0.8247 h -1.27449 q -3.52361,0 -4.91056,0.5623 -1.34947,0.5248 -1.34947,1.9492 0,1.237 0.86216,2.0242 0.86216,0.7872 2.39905,0.7872 z" />
          <path
             inkscape:connector-curvature="0"
             id="path985-5"
             style="font-style:normal;font-variant:normal;font-weight:bold;font-stretch:normal;font-size:37.48519897px;font-family:Nunito;-inkscape-font-specification:'Nunito Bold';letter-spacing:0px;fill:#007aff;fill-opacity:1"
             d="m 631.37621,1857.2696 q -2.32409,0 -2.32409,-2.399 v -14.1694 q 0,-2.3616 2.2866,-2.3616 2.2866,0 2.2866,2.3616 v 0.7872 q 0.93713,-1.5744 2.51151,-2.3991 1.61186,-0.8246 3.59857,-0.8246 6.48494,0 6.48494,7.5345 v 9.0714 q 0,2.399 -2.32408,2.399 -2.36157,0 -2.36157,-2.399 v -8.8465 q 0,-2.1367 -0.82467,-3.1113 -0.78719,-0.9746 -2.47402,-0.9746 -2.06169,0 -3.2987,1.312 -1.19953,1.2745 -1.19953,3.4111 v 8.2093 q 0,2.399 -2.36156,2.399 z" />
          <path
             inkscape:connector-curvature="0"
             id="path987-9"
             style="font-style:normal;font-variant:normal;font-weight:bold;font-stretch:normal;font-size:37.48519897px;font-family:Nunito;-inkscape-font-specification:'Nunito Bold';letter-spacing:0px;fill:#007aff;fill-opacity:1"
             d="m 657.01606,1857.3446 q -1.98672,0 -3.5611,-0.7497 -1.53689,-0.7872 -2.43653,-2.0992 -0.86216,-1.3119 -0.86216,-2.9613 0,-2.0242 1.04958,-3.1862 1.04959,-1.1996 3.41116,-1.7243 2.36156,-0.5248 6.33499,-0.5248 h 1.31199 v -0.7872 q 0,-1.8743 -0.82468,-2.699 -0.82467,-0.8246 -2.7739,-0.8246 -1.08707,0 -2.36157,0.2624 -1.23701,0.2624 -2.62396,0.8996 -0.89965,0.4123 -1.49941,0.1125 -0.59977,-0.3374 -0.82468,-1.0121 -0.18742,-0.7123 0.075,-1.4245 0.29988,-0.7122 1.16204,-1.0496 1.72432,-0.7122 3.2987,-1.0121 1.61187,-0.2998 2.92385,-0.2998 4.01091,0 5.96014,1.8742 1.94923,1.8368 1.94923,5.7352 v 8.9965 q 0,2.399 -2.17414,2.399 -2.21162,0 -2.21162,-2.399 v -0.8247 q -0.63725,1.5369 -2.0242,2.4366 -1.38696,0.8621 -3.2987,0.8621 z m 0.97461,-3.2237 q 1.83678,0 3.0363,-1.2745 1.23702,-1.2745 1.23702,-3.2237 v -0.8247 h -1.2745 q -3.52361,0 -4.91056,0.5623 -1.34947,0.5248 -1.34947,1.9492 0,1.237 0.86216,2.0242 0.86216,0.7872 2.39905,0.7872 z" />
        </g>
        <text
           id="text887"
           y="1122.5463"
           x="3240.4128"
           style="font-style:normal;font-variant:normal;font-weight:bold;font-stretch:normal;font-size:6.66666651px;line-height:1.25;font-family:sans-serif;-inkscape-font-specification:'sans-serif Bold';letter-spacing:0px;word-spacing:0px;fill:#007aff;fill-opacity:1;stroke:none"
           xml:space="preserve"><tspan
             y="1128.4447"
             x="3240.4128"
             id="tspan885"
             sodipodi:role="line" /></text>
        <g
           id="flowRoot860"
           style="font-style:normal;font-variant:normal;font-weight:bold;font-stretch:normal;font-size:6.66666651px;line-height:1.25;font-family:Nunito;-inkscape-font-specification:'Nunito Bold';letter-spacing:80px;word-spacing:0px;fill:#007aff;fill-opacity:1;stroke:none"
           transform="translate(1013.5544,889.318)"
           aria-label="VENEZUELA">
          <path
             id="path868"
             style="font-style:normal;font-variant:normal;font-weight:900;font-stretch:normal;font-size:133.33332825px;font-family:Nunito;-inkscape-font-specification:'Nunito Heavy';letter-spacing:60px;fill:#007aff;fill-opacity:1"
             d="m 1839.4633,269.1038 q -5.0667,0 -8.2667,-2.13334 -3.0667,-2.13333 -5.2,-6.8 l -32.2667,-71.19999 q -2.1333,-4.66667 -1.3333,-8.4 0.8,-3.73334 3.7333,-5.73334 2.9334,-2.13333 7.3334,-2.13333 5.3333,0 8.1333,2.4 2.8,2.4 4.8,7.06667 l 23.4667,54.4 23.4666,-54.53334 q 2,-4.66666 4.8,-6.93333 2.8,-2.4 7.8667,-2.4 4.1333,0 6.9333,2.13333 2.8,2.13334 3.4667,5.86667 0.8,3.6 -1.3333,8.26667 l -32.4,71.19999 q -2,4.66667 -5.2,6.8 -3.0667,2.13334 -8,2.13334 z"
             inkscape:connector-curvature="0" />
          <path
             id="path870"
             style="font-style:normal;font-variant:normal;font-weight:900;font-stretch:normal;font-size:133.33332825px;font-family:Nunito;-inkscape-font-specification:'Nunito Heavy';letter-spacing:60px;fill:#007aff;fill-opacity:1"
             d="m 1970.1298,267.9038 q -12.8,0 -12.8,-12.66667 v -68.66666 q 0,-12.66667 12.8,-12.66667 h 45.2 q 9.6,0 9.6,9.33333 0,9.6 -9.6,9.6 h -34.5334 v 17.86667 h 31.6 q 9.6,0 9.6,9.46667 0,9.46666 -9.6,9.46666 h -31.6 v 19.33334 h 34.5334 q 9.6,0 9.6,9.46666 0,9.46667 -9.6,9.46667 z"
             inkscape:connector-curvature="0" />
          <path
             id="path872"
             style="font-style:normal;font-variant:normal;font-weight:900;font-stretch:normal;font-size:133.33332825px;font-family:Nunito;-inkscape-font-specification:'Nunito Heavy';letter-spacing:60px;fill:#007aff;fill-opacity:1"
             d="m 2110.6629,269.1038 q -11.4667,0 -11.4667,-11.6 v -72.66667 q 0,-5.86666 2.9334,-8.93333 2.9333,-3.2 7.7333,-3.2 4.2667,0 6.5333,1.6 2.4,1.6 5.4667,5.33333 l 38.5333,48.13334 v -43.6 q 0,-11.46667 11.3334,-11.46667 5.6,0 8.4,3.06667 2.9333,2.93333 2.9333,8.4 v 73.86666 q 0,5.06667 -2.6667,8.13333 -2.6666,2.93334 -7.2,2.93334 -4.5333,0 -7.2,-1.6 -2.5333,-1.6 -5.4666,-5.33334 l -38.5334,-48.13333 v 43.46667 q 0,11.6 -11.3333,11.6 z"
             inkscape:connector-curvature="0" />
          <path
             id="path874"
             style="font-style:normal;font-variant:normal;font-weight:900;font-stretch:normal;font-size:133.33332825px;font-family:Nunito;-inkscape-font-specification:'Nunito Heavy';letter-spacing:60px;fill:#007aff;fill-opacity:1"
             d="m 2273.0628,267.9038 q -12.8,0 -12.8,-12.66667 v -68.66666 q 0,-12.66667 12.8,-12.66667 h 45.2 q 9.6,0 9.6,9.33333 0,9.6 -9.6,9.6 h -34.5333 v 17.86667 h 31.6 q 9.6,0 9.6,9.46667 0,9.46666 -9.6,9.46666 h -31.6 v 19.33334 h 34.5333 q 9.6,0 9.6,9.46666 0,9.46667 -9.6,9.46667 z"
             inkscape:connector-curvature="0" />
          <path
             id="path876"
             style="font-style:normal;font-variant:normal;font-weight:900;font-stretch:normal;font-size:133.33332825px;font-family:Nunito;-inkscape-font-specification:'Nunito Heavy';letter-spacing:60px;fill:#007aff;fill-opacity:1"
             d="m 2410.7959,267.9038 q -6.2666,0 -9.4666,-3.46667 -3.0667,-3.46667 -2.6667,-8.8 0.4,-5.33333 4.8,-10.8 l 40.4,-50.8 h -34.9333 q -10.5334,0 -10.5334,-10.13333 0,-10 10.5334,-10 h 52 q 6.2666,0 9.4666,3.46667 3.2,3.46666 2.6667,8.8 -0.4,5.33333 -4.8,10.8 l -40.5333,50.8 h 37.2 q 10.5333,0 10.5333,10 0,10.13333 -10.5333,10.13333 z"
             inkscape:connector-curvature="0" />
          <path
             id="path878"
             style="font-style:normal;font-variant:normal;font-weight:900;font-stretch:normal;font-size:133.33332825px;font-family:Nunito;-inkscape-font-specification:'Nunito Heavy';letter-spacing:60px;fill:#007aff;fill-opacity:1"
             d="m 2587.0623,269.37046 q -20.5333,0 -31.4666,-10.4 -10.8,-10.39999 -10.8,-31.06666 v -42.8 q 0,-6 3.2,-9.2 3.2,-3.2 9.0666,-3.2 5.8667,0 9.0667,3.2 3.2,3.2 3.2,9.2 v 43.06667 q 0,10.26666 4.5333,15.46666 4.5334,5.2 13.2,5.2 8.5334,0 13.0667,-5.2 4.5333,-5.2 4.5333,-15.46666 V 185.1038 q 0,-6 3.0667,-9.2 3.2,-3.2 9.0667,-3.2 5.8666,0 8.9333,3.2 3.0667,3.2 3.0667,9.2 v 42.8 q 0,20.66667 -10.6667,31.06666 -10.5333,10.4 -31.0667,10.4 z"
             inkscape:connector-curvature="0" />
          <path
             id="path880"
             style="font-style:normal;font-variant:normal;font-weight:900;font-stretch:normal;font-size:133.33332825px;font-family:Nunito;-inkscape-font-specification:'Nunito Heavy';letter-spacing:60px;fill:#007aff;fill-opacity:1"
             d="m 2717.9956,267.9038 q -12.8,0 -12.8,-12.66667 v -68.66666 q 0,-12.66667 12.8,-12.66667 h 45.2 q 9.6,0 9.6,9.33333 0,9.6 -9.6,9.6 h -34.5334 v 17.86667 h 31.6 q 9.6,0 9.6,9.46667 0,9.46666 -9.6,9.46666 h -31.6 v 19.33334 h 34.5334 q 9.6,0 9.6,9.46666 0,9.46667 -9.6,9.46667 z"
             inkscape:connector-curvature="0" />
          <path
             id="path882"
             style="font-style:normal;font-variant:normal;font-weight:900;font-stretch:normal;font-size:133.33332825px;font-family:Nunito;-inkscape-font-specification:'Nunito Heavy';letter-spacing:60px;fill:#007aff;fill-opacity:1"
             d="m 2859.462,267.9038 q -6,0 -9.2,-3.2 -3.2,-3.33334 -3.2,-9.2 v -69.33333 q 0,-6 3.2,-9.2 3.2,-3.2 9.0667,-3.2 5.8667,0 9.0667,3.2 3.2,3.2 3.2,9.2 v 61.33333 h 32.5333 q 5.0667,0 7.7333,2.66667 2.8,2.66666 2.8,7.46666 0,4.93333 -2.8,7.6 -2.6666,2.66667 -7.7333,2.66667 z"
             inkscape:connector-curvature="0" />
          <path
             id="path884"
             style="font-style:normal;font-variant:normal;font-weight:900;font-stretch:normal;font-size:133.33332825px;font-family:Nunito;-inkscape-font-specification:'Nunito Heavy';letter-spacing:60px;fill:#007aff;fill-opacity:1"
             d="m 2988.2618,269.1038 q -6.2666,0 -9.2,-4.26667 -2.9333,-4.26667 0,-10.66666 l 33.2,-71.46667 q 2.4,-5.2 5.8667,-7.6 3.4667,-2.4 8.1333,-2.4 4.5334,0 8,2.4 3.4667,2.4 5.8667,7.6 l 33.2,71.46667 q 3.0667,6.53333 0.2667,10.79999 -2.8,4.13334 -8.8,4.13334 -5.3334,0 -8.2667,-2.4 -2.8,-2.4 -5.0667,-7.73334 l -4.2666,-10.13333 h -42 l -4.2667,10.13333 q -2.4,5.33334 -4.9333,7.73334 -2.5334,2.4 -7.7334,2.4 z m 37.7334,-69.6 -12.8,30.53333 h 25.8666 l -12.8,-30.53333 z"
             inkscape:connector-curvature="0" />
        </g>
      </g>
    </g>
    <path
       sodipodi:nodetypes="ccccccscssccccsscscccccccccccscccccccccccccccccccscccccccccccccscccccccccccccccccscccccccccccccccccccc"
       inkscape:connector-curvature="0"
       inkscape:export-ydpi="96"
       inkscape:export-xdpi="96"
       inkscape:export-filename="/home/eduardo/iglesiasana/inicio/logo_iglesiasana_acuamarina-azul.png"
       id="path864"
       d="m 448.47766,503.60119 c 0,0 -20.28087,1e-5 -35.03866,17.49774 v 10e-4 l -23.49862,27.8093 -257.55339,305.02897 -20.33764,24.08664 C 91.709466,902.11214 73.118146,924.13041 73.118146,962.595 v 350.8162 64.055 c 0,32.7323 26.534875,59.2672 59.267294,59.2672 H 415.6831 v -0.019 h 273.6173 v 0.019 h 75.26944 c 32.73252,0 59.26729,-26.5349 59.26729,-59.2672 v -64.055 -350.8162 c 0,-38.46459 -18.59131,-60.48278 -38.9297,-84.57003 L 764.56984,853.93879 507.01644,548.9098 483.53639,521.10046 c -14.77573,-17.49941 -35.05873,-17.49927 -35.05873,-17.49927 z m -138.29034,59.26729 c 0,0 -16.24469,3.3e-4 -28.06552,14.0158 v 10e-4 l -18.82203,22.27462 -206.296454,244.32483 -16.2908,19.2927 C 24.421767,882.0711 9.5308312,899.70708 9.5308312,930.51667 v 280.99943 51.308 c 0.00629,24.8072 19.1121668,45.4268 43.8469878,47.3212 -0.104355,-96.8822 0.0613,-193.7708 -0.01548,-290.6536 0.37393,-23.042 -0.753262,-46.1346 0.563344,-69.14681 2.102634,-27.27876 15.562714,-52.23424 32.893332,-72.8787 C 170.82401,777.57621 255.19788,677.93207 339.36866,578.18954 l -1.10041,-1.30418 c -11.8352,-14.01683 -28.081,-14.01733 -28.081,-14.01733 z m 276.58227,0 c 0,0 -16.24738,5.1e-4 -28.08258,14.01732 l -1.09115,1.29339 c 56.7301,67.10676 113.32591,134.33195 170.06779,201.42853 28.7739,34.43383 58.25701,68.28597 86.59358,103.07879 16.83644,20.94474 28.43537,46.71835 29.20147,73.85413 0.28753,117.85446 0.097,235.71606 0.12961,353.57426 24.71922,-1.8982 43.81552,-22.4984 43.83775,-47.2904 v -51.308 -280.99947 c 0,-30.80951 -14.89097,-48.44548 -31.18171,-67.73912 L 839.9535,843.48522 633.65706,599.16044 614.83353,576.8858 v -10e-4 C 603.0127,562.86876 586.76959,562.86843 586.76959,562.86843 Z m -403.0207,55.31613 c 0,0 -12.37989,6.3e-4 -21.38872,10.68202 v 10e-4 L 148.01565,645.84382 -9.2062716,832.04658 -21.621536,846.75072 c -12.415366,14.7039 -23.764025,28.14375 -23.764025,51.62426 v 214.15412 39.1024 c 0.01133,19.5799 15.597685,35.5976 35.169884,36.1438 -0.06558,-86.9567 -0.0038,-173.9177 0.04935,-260.87331 C -9.8651977,902.6397 0.90183914,879.68879 16.272446,861.3206 80.23913,785.11717 144.58759,709.17577 208.76459,633.1492 l -3.61469,-4.28145 c -9.01978,-10.68243 -21.40105,-10.68354 -21.40105,-10.68354 z m 529.45758,0 c 0,0 -12.38134,7.9e-4 -21.40112,10.68355 l -3.6085,4.27374 c 64.00626,75.75345 128.04479,151.51627 191.87475,227.41665 15.26668,18.12607 26.2987,40.63058 26.98517,64.65075 0.25265,87.5135 0.11052,175.0335 0.11732,262.5509 19.56551,-0.547 35.14836,-16.5551 35.16832,-36.1284 v -39.1025 -214.15395 c 0,-23.48051 -11.35021,-36.92036 -23.76555,-51.62426 L 906.16311,832.04696 748.93962,645.84424 734.59517,628.86816 v -10e-4 c -9.00886,-10.6814 -21.38869,-10.682 -21.38869,-10.682 z M 438.59978,883.17733 h 19.75576 v 158.44127 h 154.49008 v 19.7557 H 458.35554 v 171.085 h -19.75576 v -171.085 H 282.52925 v -19.7557 h 156.07053 z"
       style="display:inline;opacity:1;fill:#007aff;fill-opacity:1;stroke:none;stroke-width:12.0597086;stroke-linecap:round;stroke-linejoin:miter;stroke-miterlimit:4;stroke-dasharray:none;stroke-opacity:1" />
  </g>
</svg>
