<?xml version="1.0" encoding="UTF-8" standalone="no"?>
<!-- Created with Inkscape (http://www.inkscape.org/) -->

<svg
   xmlns:dc="http://purl.org/dc/elements/1.1/"
   xmlns:cc="http://creativecommons.org/ns#"
   xmlns:rdf="http://www.w3.org/1999/02/22-rdf-syntax-ns#"
   xmlns:svg="http://www.w3.org/2000/svg"
   xmlns="http://www.w3.org/2000/svg"
   xmlns:xlink="http://www.w3.org/1999/xlink"
   xmlns:sodipodi="http://sodipodi.sourceforge.net/DTD/sodipodi-0.dtd"
   xmlns:inkscape="http://www.inkscape.org/namespaces/inkscape"
   width="1500"
   height="1500"
   viewBox="0 0 1500 1500"
   version="1.1"
   id="svg989"
   inkscape:version="0.92.5 (2060ec1f9f, 2020-04-08)"
   sodipodi:docname="logo_iglesiasana_acuamarina.svg"
   inkscape:export-filename="/home/eduardo/iglesiasana/inicio/logo_iglesiasana.png"
   inkscape:export-xdpi="96"
   inkscape:export-ydpi="96">
  <defs
     id="defs983">
    <linearGradient
       inkscape:collect="always"
       id="linearGradient1019-6-7">
      <stop
         style="stop-color:#00ffff;stop-opacity:1"
         offset="0"
         id="stop1570" />
      <stop
         style="stop-color:#00aaaa;stop-opacity:1"
         offset="1"
         id="stop1572" />
    </linearGradient>
    <filter
       style="color-interpolation-filters:sRGB"
       inkscape:label="Feather"
       id="filter10753"
       x="-0.0096005851"
       y="-0.010162292"
       width="1.0192012"
       height="1.0203246">
      <feGaussianBlur
         stdDeviation="5"
         result="blur"
         id="feGaussianBlur10745" />
      <feComposite
         in="SourceGraphic"
         in2="blur"
         operator="atop"
         result="composite1"
         id="feComposite10747" />
      <feComposite
         in2="composite1"
         operator="in"
         result="composite2"
         id="feComposite10749" />
      <feComposite
         in2="composite2"
         operator="in"
         result="composite3"
         id="feComposite10751" />
    </filter>
    <filter
       style="color-interpolation-filters:sRGB;"
       inkscape:label="Blur"
       id="filter14693"
       x="-0.0096005851"
       y="-0.010162292"
       width="1.0192012"
       height="1.0203246">
      <feGaussianBlur
         stdDeviation="5 5"
         result="blur"
         id="feGaussianBlur14691" />
    </filter>
    <linearGradient
       inkscape:collect="always"
       xlink:href="#linearGradient1019-6-7"
       id="linearGradient3020"
       x1="1388.9619"
       y1="-202.87631"
       x2="116.83427"
       y2="984.16345"
       gradientUnits="userSpaceOnUse"
       spreadMethod="repeat" />
    <filter
       inkscape:collect="always"
       style="color-interpolation-filters:sRGB"
       id="filter876"
       x="-0.0023336716"
       width="1.0046673"
       y="-0.0024702091"
       height="1.0049404">
      <feGaussianBlur
         inkscape:collect="always"
         stdDeviation="1.2153799"
         id="feGaussianBlur878" />
    </filter>
  </defs>
  <sodipodi:namedview
     id="base"
     pagecolor="#000000"
     bordercolor="#0000c3"
     borderopacity="1"
     inkscape:pageopacity="0"
     inkscape:pageshadow="2"
     inkscape:zoom="0.19278908"
     inkscape:cx="265.93497"
     inkscape:cy="439.38687"
     inkscape:document-units="px"
     inkscape:current-layer="layer2"
     showgrid="false"
     inkscape:showpageshadow="false"
     units="px"
     inkscape:snap-bbox="true"
     inkscape:bbox-nodes="true"
     showguides="false"
     inkscape:guide-bbox="true"
     inkscape:snap-intersection-paths="true"
     inkscape:snap-bbox-midpoints="true"
     inkscape:snap-bbox-edge-midpoints="true"
     inkscape:window-width="1366"
     inkscape:window-height="704"
     inkscape:window-x="0"
     inkscape:window-y="27"
     inkscape:window-maximized="1"
     inkscape:snap-global="true"
     showborder="true"
     inkscape:pagecheckerboard="true"
     width="1500px">
    <sodipodi:guide
       position="-5.7142859,-2.8572658"
       orientation="0,1"
       id="guide1544"
       inkscape:locked="false" />
    <sodipodi:guide
       position="0,2500"
       orientation="0,1"
       id="guide1552"
       inkscape:locked="false" />
    <sodipodi:guide
       position="0,2500"
       orientation="1,0"
       id="guide1554"
       inkscape:locked="false" />
    <sodipodi:guide
       position="2500,2500"
       orientation="1,0"
       id="guide1556"
       inkscape:locked="false" />
    <sodipodi:guide
       position="1250,675.50076"
       orientation="0,1"
       id="guide1575"
       inkscape:locked="false" />
    <sodipodi:guide
       position="750,2119.8596"
       orientation="1,0"
       id="guide1701"
       inkscape:locked="false" />
    <sodipodi:guide
       position="1750,2119.8596"
       orientation="1,0"
       id="guide1703"
       inkscape:locked="false" />
    <sodipodi:guide
       position="1725,2125.5739"
       orientation="1,0"
       id="guide1707"
       inkscape:locked="false" />
    <sodipodi:guide
       position="1650,750.50076"
       orientation="1,0"
       id="guide1715"
       inkscape:locked="false" />
    <sodipodi:guide
       position="581.5,835.50077"
       orientation="0,1"
       id="guide1891"
       inkscape:locked="false" />
    <sodipodi:guide
       position="-548.5391,718.00036"
       orientation="1,0"
       id="guide2008"
       inkscape:locked="false" />
    <sodipodi:guide
       position="0,750"
       orientation="0,-1"
       id="guide13959"
       inkscape:locked="false" />
  </sodipodi:namedview>
  <metadata
     id="metadata986">
    <rdf:RDF>
      <cc:Work
         rdf:about="">
        <dc:format>image/svg+xml</dc:format>
        <dc:type
           rdf:resource="http://purl.org/dc/dcmitype/StillImage" />
        <dc:title />
      </cc:Work>
    </rdf:RDF>
  </metadata>
  <g
     inkscape:label="Layer 1"
     inkscape:groupmode="layer"
     id="layer1"
     transform="translate(0,364.45834)"
     style="display:inline">
    <path
       style="opacity:1;fill:url(#linearGradient3020);fill-opacity:1;stroke:none;stroke-width:15.26099968;stroke-linecap:round;stroke-linejoin:miter;stroke-miterlimit:4;stroke-dasharray:none;stroke-opacity:1;filter:url(#filter876)"
       d="m 749.99902,-204.87631 c 0,0 -25.6645,2e-5 -44.3398,22.14258 v 0.002 l -29.7364,35.19136 -325.92185,386 -25.73633,30.4805 c -25.73919,30.4812 -49.26562,58.3443 -49.26562,107.0195 v 443.9414 81.0586 c 0,41.42136 33.57864,75 75,75 h 358.5 v -0.025 H 1054.749 v 0.025 h 95.25 c 41.4214,0 75,-33.57864 75,-75 v -81.0586 -443.9414 c 0,-48.6752 -23.5265,-76.5382 -49.2637,-107.0195 l -25.7363,-30.4805 -325.92188,-386 -29.7129,-35.19141 c -18.698,-22.1447 -44.3652,-22.14453 -44.3652,-22.14453 z m -175,75 c 0,0 -20.5569,4.1e-4 -35.5156,17.73633 v 0.002 l -23.8184,28.1875 -261.05858,309.18171 -20.61523,24.414 c -20.6152,24.4151 -39.45899,46.7326 -39.45899,85.7207 v 355.5918 64.9277 c 0.008,31.39244 24.18557,57.48552 55.48633,59.8829 -0.1321,-122.5999 0.0775,-245.208 -0.0195,-367.8087 0.4732,-29.1584 -0.95321,-58.381 0.71289,-87.502 2.6608,-34.52 19.6939,-66.1 41.625,-92.2246 106.3044,-126.40612 213.07561,-252.50115 319.58981,-378.72067 l -1.3925,-1.65039 c -14.9769,-17.73764 -35.5352,-17.73828 -35.5352,-17.73828 z m 350.002,0 c 0,0 -20.5603,6.4e-4 -35.5372,17.73828 l -1.3808,1.63672 c 71.7893,84.92048 143.40868,169.99082 215.21288,254.89844 36.412,43.5744 73.7216,86.4127 109.5801,130.4414 21.3058,26.5046 35.9837,59.1199 36.9531,93.459 0.3639,149.1393 0.1223,298.2876 0.164,447.4316 31.2811,-2.40198 55.4465,-28.47048 55.4747,-59.8437 v -64.9278 -355.5918 c 0,-38.988 -18.8438,-61.3055 -39.459,-85.7207 l -20.6153,-24.414 -261.05858,-309.18166 -23.8203,-28.1875 v -0.002 c -14.9587,-17.73592 -35.5136,-17.73633 -35.5136,-17.73633 z m -510.00395,70 c 0,0 -15.66616,7.8e-4 -27.06641,13.51758 v 0.002 l -18.15234,21.48243 -198.95703,235.63093 -15.71094,18.6074 c -15.71107,18.6071 -30.07227,35.6146 -30.07227,65.3281 v 271.002 49.4824 c 0.0147,24.77735 19.73815,45.04694 44.50586,45.7383 -0.0831,-110.0397 -0.004,-220.0848 0.0625,-330.1231 0.38107,-30.7028 14.00624,-59.7461 33.45703,-82.9902 80.94686,-96.43188 162.37684,-192.53219 243.58985,-288.74029 l -4.57422,-5.41797 c -11.41412,-13.51812 -27.08203,-13.51953 -27.08203,-13.51953 z m 670.00393,0 c 0,0 -15.668,10e-4 -27.0821,13.51953 l -4.5664,5.40821 c 80.9969,95.86247 162.0347,191.73681 242.8086,287.7852 19.3192,22.9377 33.2797,51.4161 34.1484,81.8125 0.3198,110.7442 0.1393,221.4968 0.1485,332.246 24.7593,-0.69218 44.4786,-20.9497 44.5039,-45.7187 v -49.4824 -271.002 c 0,-29.7135 -14.3632,-46.721 -30.0742,-65.3281 l -15.709,-18.6074 -198.959,-235.63088 -18.1523,-21.48243 v -0.002 c -11.4003,-13.5168 -27.0664,-13.51758 -27.0664,-13.51758 z M 737.49902,275.45963 h 25 v 200.5 h 195.5 v 25 h -195.5 v 216.5 h -25 v -216.5 h -197.5 v -25 h 197.5 z"
       id="path2018"
       inkscape:export-filename="/home/eduardo/iglesiasana/inicio/logo_iglesiasana_acuamarina-azul.png"
       inkscape:export-xdpi="96"
       inkscape:export-ydpi="96"
       inkscape:connector-curvature="0"
       sodipodi:nodetypes="ccccccscssccccsscscccccccccccscccccccccccccccccccscccccccccccccscccccccccccccccccscccccccccccccccccccc" />
    <rect
       style="opacity:0.98999999;fill:#20989f;fill-opacity:1;stroke:none;stroke-width:25;stroke-linecap:round;stroke-linejoin:miter;stroke-miterlimit:4;stroke-dasharray:none;stroke-opacity:1"
       id="rect1992"
       height="100"
       x="994"
       y="260.04086"
       width="0" />
  </g>
  <g
     inkscape:groupmode="layer"
     id="layer2"
     inkscape:label="Layer 2"
     style="display:none"
     sodipodi:insensitive="true">
    <flowRoot
       transform="matrix(2.855237,0,0,2.855237,-521.82639,-3103.5925)"
       style="font-style:normal;font-variant:normal;font-weight:normal;font-stretch:normal;font-size:32.68849945px;line-height:1.25;font-family:Nunito;-inkscape-font-specification:Nunito;letter-spacing:14.00930023px;word-spacing:0px;fill:#5b5b5b;fill-opacity:0.99215698;stroke:none"
       id="flowRoot2114"
       xml:space="preserve"
       inkscape:export-filename="/home/eduardo/Documents/logo iglesiasana 27.png"
       inkscape:export-xdpi="96"
       inkscape:export-ydpi="96"><flowRegion
         style="font-style:normal;font-variant:normal;font-weight:normal;font-stretch:normal;font-size:32.68849945px;font-family:Nunito;-inkscape-font-specification:Nunito;letter-spacing:14.00930023px;fill:#5b5b5b;fill-opacity:0.99215698"
         id="flowRegion2110"><rect
           style="font-style:normal;font-variant:normal;font-weight:normal;font-stretch:normal;font-size:32.68847275px;font-family:Nunito;-inkscape-font-specification:Nunito;letter-spacing:14.00934505px;fill:#5b5b5b;fill-opacity:0.99215686"
           y="1824.4993"
           x="475.17575"
           height="189.01129"
           width="1583.9192"
           id="rect2108" /></flowRegion><flowPara
         style="font-style:normal;font-variant:normal;font-weight:normal;font-stretch:normal;font-size:32.68849945px;font-family:Nunito;-inkscape-font-specification:Nunito;letter-spacing:14.00930023px;fill:#5b5b5b;fill-opacity:0.99215698"
         id="flowPara2112">VENEZUELA</flowPara></flowRoot>    <g
       aria-label="IGLESIASANA"
       transform="matrix(5.1575955,0,0,5.1575955,-1949.0541,-7527.7469)"
       id="flowRoot2096"
       style="font-weight:bold;font-size:37.48519897px;line-height:1.25;font-family:Nunito;-inkscape-font-specification:'Nunito Bold';letter-spacing:4.09775019px;word-spacing:0px;fill:#5b5b5b;fill-opacity:1">
      <path
         d="m 480.46119,1857.2696 q -2.39905,0 -2.39905,-2.474 v -22.0788 q 0,-2.474 2.39905,-2.474 2.39906,0 2.39906,2.474 v 22.0788 q 0,2.474 -2.39906,2.474 z"
         id="path11381"
         style="fill:#5b5b5b;fill-opacity:1"
         inkscape:connector-curvature="0" />
      <path
         d="m 505.43818,1857.3446 q -4.38576,0 -7.42207,-1.6493 -2.99881,-1.6494 -4.57319,-4.6857 -1.57438,-3.0363 -1.57438,-7.1971 0,-4.1984 1.61187,-7.2347 1.61186,-3.0738 4.64816,-4.7231 3.0363,-1.6868 7.27213,-1.6868 2.09917,0 4.19834,0.5247 2.13666,0.4874 4.01092,1.6869 0.82467,0.4873 0.93713,1.312 0.14994,0.7871 -0.22491,1.4994 -0.37486,0.7122 -1.12456,1.0121 -0.7497,0.2624 -1.64935,-0.2624 -1.42444,-0.8247 -2.88636,-1.1996 -1.46192,-0.3748 -3.26121,-0.3748 -4.19834,0 -6.37248,2.4365 -2.13666,2.4366 -2.13666,7.0098 0,4.6106 2.21163,7.0097 2.21162,2.399 6.55991,2.399 1.23701,0 2.5115,-0.1874 1.31199,-0.2249 2.58648,-0.6372 v -6.1476 h -4.12337 q -1.94923,0 -1.94923,-1.7993 0,-1.7618 1.94923,-1.7618 h 6.18506 q 1.94923,0 1.94923,1.9492 v 9.1089 q 0,1.7244 -1.34947,2.2117 -1.64935,0.5997 -3.786,1.0121 -2.13666,0.3748 -4.19835,0.3748 z"
         id="path11378"
         style="fill:#5b5b5b;fill-opacity:1"
         inkscape:connector-curvature="0" />
      <path
         d="m 526.85403,1856.9698 q -2.43654,0 -2.43654,-2.4741 v -21.6289 q 0,-2.4366 2.39905,-2.4366 2.39905,0 2.39905,2.4366 v 20.0171 h 10.87071 q 2.09917,0 2.09917,2.0242 0,2.0617 -2.09917,2.0617 z"
         id="path11375"
         style="fill:#5b5b5b;fill-opacity:1"
         inkscape:connector-curvature="0" />
      <path
         d="m 552.13085,1856.9698 q -2.54899,0 -2.54899,-2.549 v -21.3291 q 0,-2.549 2.54899,-2.549 h 13.38222 q 1.94923,0 1.94923,1.8743 0,1.9492 -1.94923,1.9492 h -11.32053 v 7.2721 h 10.49585 q 1.94923,0 1.94923,1.9118 0,1.9117 -1.94923,1.9117 h -10.49585 v 7.6845 h 11.32053 q 1.94923,0 1.94923,1.9117 0,1.9118 -1.94923,1.9118 z"
         id="path11372"
         style="fill:#5b5b5b;fill-opacity:1"
         inkscape:connector-curvature="0" />
      <path
         d="m 584.79225,1857.3446 q -2.51151,0 -4.91057,-0.5623 -2.36156,-0.5622 -4.12337,-1.6868 -0.86216,-0.5623 -1.04958,-1.3869 -0.18743,-0.8247 0.11245,-1.5369 0.33737,-0.7497 1.0121,-1.0121 0.71222,-0.2999 1.61187,0.2624 1.64935,0.9746 3.48612,1.4244 1.83677,0.4498 3.86098,0.4498 2.96133,0 4.31079,-0.9746 1.34947,-1.0121 1.34947,-2.5865 0,-1.312 -0.97461,-2.0617 -0.93713,-0.7497 -3.26122,-1.237 l -4.12337,-0.8621 q -7.04722,-1.4994 -7.04722,-7.2347 0,-2.474 1.31199,-4.3108 1.31198,-1.8367 3.63606,-2.8488 2.32408,-1.0121 5.36038,-1.0121 2.24912,0 4.27332,0.5622 2.0242,0.5623 3.63606,1.6494 0.7497,0.5248 0.89965,1.312 0.14994,0.7497 -0.18743,1.4244 -0.33737,0.6372 -1.08707,0.8996 -0.71222,0.225 -1.68684,-0.3373 -1.38695,-0.7872 -2.81139,-1.1246 -1.42443,-0.3373 -3.07378,-0.3373 -2.58648,0 -4.0484,1.087 -1.46193,1.0871 -1.46193,2.8489 0,1.3495 0.89965,2.1741 0.89964,0.7872 3.07379,1.2371 l 4.08588,0.8621 q 3.71104,0.7872 5.51033,2.474 1.83677,1.6869 1.83677,4.4983 0,2.3615 -1.2745,4.1608 -1.27449,1.7993 -3.63606,2.8114 -2.32408,0.9746 -5.51032,0.9746 z"
         id="path11369"
         style="fill:#5b5b5b;fill-opacity:1"
         inkscape:connector-curvature="0" />
      <path
         d="m 605.83326,1857.2696 q -2.39906,0 -2.39906,-2.474 v -22.0788 q 0,-2.474 2.39906,-2.474 2.39905,0 2.39905,2.474 v 22.0788 q 0,2.474 -2.39905,2.474 z"
         id="path11366"
         style="fill:#5b5b5b;fill-opacity:1"
         inkscape:connector-curvature="0" />
      <path
         d="m 618.36516,1857.2696 q -1.31199,0 -1.87426,-0.8996 -0.56228,-0.8996 0.0375,-2.1741 l 9.89609,-21.9289 q 0.48731,-1.087 1.16205,-1.5369 0.71221,-0.4873 1.61186,-0.4873 0.86216,0 1.53689,0.4873 0.71222,0.4499 1.19953,1.5369 l 9.93358,21.9289 q 0.59976,1.3119 0.075,2.2116 -0.5248,0.8621 -1.79929,0.8621 -1.04959,0 -1.64935,-0.4873 -0.56228,-0.5248 -1.0121,-1.5743 l -1.87426,-4.3483 h -12.89491 l -1.83677,4.3483 q -0.48731,1.087 -1.01211,1.5743 -0.52479,0.4873 -1.4994,0.4873 z m 10.75825,-21.5165 -4.76062,11.2831 h 9.59621 l -4.76062,-11.2831 z"
         id="path11363"
         style="fill:#5b5b5b;fill-opacity:1"
         inkscape:connector-curvature="0" />
      <path
         d="m 658.89846,1857.3446 q -2.51151,0 -4.91056,-0.5623 -2.36157,-0.5622 -4.12337,-1.6868 -0.86216,-0.5623 -1.04959,-1.3869 -0.18742,-0.8247 0.11246,-1.5369 0.33737,-0.7497 1.0121,-1.0121 0.71222,-0.2999 1.61186,0.2624 1.64935,0.9746 3.48613,1.4244 1.83677,0.4498 3.86097,0.4498 2.96133,0 4.3108,-0.9746 1.34947,-1.0121 1.34947,-2.5865 0,-1.312 -0.97462,-2.0617 -0.93713,-0.7497 -3.26121,-1.237 l -4.12337,-0.8621 q -7.04722,-1.4994 -7.04722,-7.2347 0,-2.474 1.31198,-4.3108 1.31198,-1.8367 3.63607,-2.8488 2.32408,-1.0121 5.36038,-1.0121 2.24911,0 4.27331,0.5622 2.0242,0.5623 3.63607,1.6494 0.7497,0.5248 0.89964,1.312 0.14994,0.7497 -0.18742,1.4244 -0.33737,0.6372 -1.08708,0.8996 -0.71221,0.225 -1.68683,-0.3373 -1.38695,-0.7872 -2.81139,-1.1246 -1.42444,-0.3373 -3.07379,-0.3373 -2.58647,0 -4.0484,1.087 -1.46192,1.0871 -1.46192,2.8489 0,1.3495 0.89965,2.1741 0.89964,0.7872 3.07378,1.2371 l 4.08589,0.8621 q 3.71103,0.7872 5.51032,2.474 1.83678,1.6869 1.83678,4.4983 0,2.3615 -1.2745,4.1608 -1.2745,1.7993 -3.63606,2.8114 -2.32409,0.9746 -5.51033,0.9746 z"
         id="path11360"
         style="fill:#5b5b5b;fill-opacity:1"
         inkscape:connector-curvature="0" />
      <path
         d="m 677.61534,1857.2696 q -1.31198,0 -1.87426,-0.8996 -0.56228,-0.8996 0.0375,-2.1741 l 9.89609,-21.9289 q 0.48731,-1.087 1.16204,-1.5369 0.71222,-0.4873 1.61186,-0.4873 0.86216,0 1.5369,0.4873 0.71221,0.4499 1.19952,1.5369 l 9.93358,21.9289 q 0.59976,1.3119 0.075,2.2116 -0.52479,0.8621 -1.79929,0.8621 -1.04959,0 -1.64935,-0.4873 -0.56228,-0.5248 -1.0121,-1.5743 l -1.87426,-4.3483 h -12.89491 l -1.83677,4.3483 q -0.48731,1.087 -1.0121,1.5743 -0.52479,0.4873 -1.49941,0.4873 z m 10.75825,-21.5165 -4.76062,11.2831 h 9.59621 l -4.76062,-11.2831 z"
         id="path11357"
         style="fill:#5b5b5b;fill-opacity:1"
         inkscape:connector-curvature="0" />
      <path
         d="m 711.58878,1857.2696 q -2.24911,0 -2.24911,-2.324 v -22.3037 q 0,-1.1621 0.56228,-1.7618 0.59976,-0.6373 1.53689,-0.6373 0.86216,0 1.2745,0.3374 0.44982,0.2999 1.04958,1.0496 l 13.38222,17.3556 v -16.456 q 0,-2.2866 2.24911,-2.2866 2.21163,0 2.21163,2.2866 v 22.4911 q 0,1.0496 -0.5248,1.6494 -0.52479,0.5997 -1.42443,0.5997 -0.86216,0 -1.38696,-0.3373 -0.4873,-0.3374 -1.08707,-1.0871 l -13.38221,-17.3931 v 16.4935 q 0,2.324 -2.21163,2.324 z"
         id="path11354"
         style="fill:#5b5b5b;fill-opacity:1"
         inkscape:connector-curvature="0" />
      <path
         d="m 741.73872,1857.2696 q -1.31198,0 -1.87426,-0.8996 -0.56228,-0.8996 0.0375,-2.1741 l 9.89609,-21.9289 q 0.48731,-1.087 1.16204,-1.5369 0.71222,-0.4873 1.61187,-0.4873 0.86215,0 1.53689,0.4873 0.71222,0.4499 1.19952,1.5369 l 9.93358,21.9289 q 0.59977,1.3119 0.075,2.2116 -0.52479,0.8621 -1.79929,0.8621 -1.04958,0 -1.64935,-0.4873 -0.56227,-0.5248 -1.0121,-1.5743 l -1.87426,-4.3483 h -12.8949 l -1.83678,4.3483 q -0.48731,1.087 -1.0121,1.5743 -0.52479,0.4873 -1.49941,0.4873 z m 10.75825,-21.5165 -4.76062,11.2831 h 9.59622 l -4.76062,-11.2831 z"
         id="path11351"
         style="fill:#5b5b5b;fill-opacity:1"
         inkscape:connector-curvature="0" />
    </g>
    <flowRoot
       xml:space="preserve"
       id="flowRoot1017"
       style="font-style:normal;font-variant:normal;font-weight:bold;font-stretch:normal;font-size:37.48519897px;line-height:1.25;font-family:Nunito;-inkscape-font-specification:'Nunito Bold';letter-spacing:4.09775019px;word-spacing:0px;fill:#ffffff;fill-opacity:1;stroke:none"
       transform="matrix(5.1575955,0,0,5.1575955,-1957.0541,-7535.7469)"
       inkscape:export-filename="/home/eduardo/Documents/logo iglesiasana 27.png"
       inkscape:export-xdpi="96"
       inkscape:export-ydpi="96"><flowRegion
         id="flowRegion1013"
         style="font-style:normal;font-variant:normal;font-weight:bold;font-stretch:normal;font-size:37.48519897px;font-family:Nunito;-inkscape-font-specification:'Nunito Bold';letter-spacing:4.09775019px;fill:#ffffff;fill-opacity:1"><rect
           id="rect1011"
           width="1583.9192"
           height="189.01129"
           x="475.17575"
           y="1824.4993"
           style="font-style:normal;font-variant:normal;font-weight:bold;font-stretch:normal;font-size:37.48516846px;font-family:Nunito;-inkscape-font-specification:'Nunito Bold';letter-spacing:4.0977478px;fill:#ffffff;fill-opacity:1" /></flowRegion><flowPara
         id="flowPara1015"
         style="font-style:normal;font-variant:normal;font-weight:bold;font-stretch:normal;font-size:37.48519897px;font-family:Nunito;-inkscape-font-specification:'Nunito Bold';letter-spacing:4.09775019px;fill:#ffffff;fill-opacity:1">IGLESIASANA</flowPara></flowRoot>    <flowRoot
       transform="matrix(2.855237,0,0,2.855237,-527.82639,-3109.5925)"
       style="font-style:normal;font-variant:normal;font-weight:normal;font-stretch:normal;font-size:32.68849945px;line-height:1.25;font-family:Nunito;-inkscape-font-specification:Nunito;letter-spacing:14.00930023px;word-spacing:0px;fill:#ffffff;fill-opacity:1;stroke:none"
       id="flowRoot1025"
       xml:space="preserve"
       inkscape:export-filename="/home/eduardo/Documents/logo iglesiasana 27.png"
       inkscape:export-xdpi="96"
       inkscape:export-ydpi="96"><flowRegion
         style="font-style:normal;font-variant:normal;font-weight:normal;font-stretch:normal;font-size:32.68849945px;font-family:Nunito;-inkscape-font-specification:Nunito;letter-spacing:14.00930023px;fill:#ffffff;fill-opacity:1"
         id="flowRegion1021"><rect
           style="font-style:normal;font-variant:normal;font-weight:normal;font-stretch:normal;font-size:32.68847275px;font-family:Nunito;-inkscape-font-specification:Nunito;letter-spacing:14.00934505px;fill:#ffffff;fill-opacity:1"
           y="1824.4993"
           x="475.17575"
           height="189.01129"
           width="1583.9192"
           id="rect1019" /></flowRegion><flowPara
         style="font-style:normal;font-variant:normal;font-weight:normal;font-stretch:normal;font-size:32.68849945px;font-family:Nunito;-inkscape-font-specification:Nunito;letter-spacing:14.00930023px;fill:#ffffff;fill-opacity:1"
         id="flowPara1023">VENEZUELA</flowPara></flowRoot>    <path
       transform="translate(0,364.45834)"
       sodipodi:nodetypes="ccccccscssccccsscscccccccccccscccccccccccccccccccscccccccccccccscccccccccccccccccscccccccccccccccccccc"
       inkscape:connector-curvature="0"
       inkscape:export-ydpi="96"
       inkscape:export-xdpi="96"
       inkscape:export-filename="/home/eduardo/iglesiasana/inicio/logo_iglesiasana_acuamarina-azul.png"
       id="path864"
       d="m 749.99902,-204.87631 c 0,0 -25.6645,2e-5 -44.3398,22.14258 v 0.002 l -29.7364,35.19136 -325.92185,386 -25.73633,30.4805 c -25.73919,30.4812 -49.26562,58.3443 -49.26562,107.0195 v 443.9414 81.0586 c 0,41.42136 33.57864,75 75,75 h 358.5 v -0.025 H 1054.749 v 0.025 h 95.25 c 41.4214,0 75,-33.57864 75,-75 v -81.0586 -443.9414 c 0,-48.6752 -23.5265,-76.5382 -49.2637,-107.0195 l -25.7363,-30.4805 -325.92188,-386 -29.7129,-35.19141 c -18.698,-22.1447 -44.3652,-22.14453 -44.3652,-22.14453 z m -175,75 c 0,0 -20.5569,4.1e-4 -35.5156,17.73633 v 0.002 l -23.8184,28.1875 -261.05858,309.18171 -20.61523,24.414 c -20.6152,24.4151 -39.45899,46.7326 -39.45899,85.7207 v 355.5918 64.9277 c 0.008,31.39244 24.18557,57.48552 55.48633,59.8829 -0.1321,-122.5999 0.0775,-245.208 -0.0195,-367.8087 0.4732,-29.1584 -0.95321,-58.381 0.71289,-87.502 2.6608,-34.52 19.6939,-66.1 41.625,-92.2246 106.3044,-126.40612 213.07561,-252.50115 319.58981,-378.72067 l -1.3925,-1.65039 c -14.9769,-17.73764 -35.5352,-17.73828 -35.5352,-17.73828 z m 350.002,0 c 0,0 -20.5603,6.4e-4 -35.5372,17.73828 l -1.3808,1.63672 c 71.7893,84.92048 143.40868,169.99082 215.21288,254.89844 36.412,43.5744 73.7216,86.4127 109.5801,130.4414 21.3058,26.5046 35.9837,59.1199 36.9531,93.459 0.3639,149.1393 0.1223,298.2876 0.164,447.4316 31.2811,-2.40198 55.4465,-28.47048 55.4747,-59.8437 v -64.9278 -355.5918 c 0,-38.988 -18.8438,-61.3055 -39.459,-85.7207 l -20.6153,-24.414 -261.05858,-309.18166 -23.8203,-28.1875 v -0.002 c -14.9587,-17.73592 -35.5136,-17.73633 -35.5136,-17.73633 z m -510.00395,70 c 0,0 -15.66616,7.8e-4 -27.06641,13.51758 v 0.002 l -18.15234,21.48243 -198.95703,235.63093 -15.71094,18.6074 c -15.71107,18.6071 -30.07227,35.6146 -30.07227,65.3281 v 271.002 49.4824 c 0.0147,24.77735 19.73815,45.04694 44.50586,45.7383 -0.0831,-110.0397 -0.004,-220.0848 0.0625,-330.1231 0.38107,-30.7028 14.00624,-59.7461 33.45703,-82.9902 80.94686,-96.43188 162.37684,-192.53219 243.58985,-288.74029 l -4.57422,-5.41797 c -11.41412,-13.51812 -27.08203,-13.51953 -27.08203,-13.51953 z m 670.00393,0 c 0,0 -15.668,10e-4 -27.0821,13.51953 l -4.5664,5.40821 c 80.9969,95.86247 162.0347,191.73681 242.8086,287.7852 19.3192,22.9377 33.2797,51.4161 34.1484,81.8125 0.3198,110.7442 0.1393,221.4968 0.1485,332.246 24.7593,-0.69218 44.4786,-20.9497 44.5039,-45.7187 v -49.4824 -271.002 c 0,-29.7135 -14.3632,-46.721 -30.0742,-65.3281 l -15.709,-18.6074 -198.959,-235.63088 -18.1523,-21.48243 v -0.002 c -11.4003,-13.5168 -27.0664,-13.51758 -27.0664,-13.51758 z M 737.49902,275.45963 h 25 v 200.5 h 195.5 v 25 h -195.5 v 216.5 h -25 v -216.5 h -197.5 v -25 h 197.5 z"
       style="display:inline;opacity:1;fill:#ffffff;fill-opacity:1;stroke:none;stroke-width:15.26099968;stroke-linecap:round;stroke-linejoin:miter;stroke-miterlimit:4;stroke-dasharray:none;stroke-opacity:1;filter:url(#filter876)" />
  </g>
</svg>
